<?xml version="1.0" standalone="no"?>
<!DOCTYPE svg PUBLIC "-//W3C//DTD SVG 20010904//EN"
 "http://www.w3.org/TR/2001/REC-SVG-20010904/DTD/svg10.dtd">
<svg version="1.0" xmlns="http://www.w3.org/2000/svg"
 width="500.000000pt" height="500.000000pt" viewBox="0 0 500.000000 500.000000"
 preserveAspectRatio="xMidYMid meet">
<metadata>
Created by potrace 1.11, written by Peter Selinger 2001-2013
</metadata>
<g transform="translate(0.000000,500.000000) scale(0.100000,-0.100000)"
fill="#000000" stroke="none">
<path d="M2390 4652 c0 -37 -51 -82 -93 -82 -41 0 -97 41 -97 70 0 16 -4 17
-29 10 -16 -4 -32 -6 -35 -2 -3 3 -6 -8 -6 -24 0 -38 -25 -73 -62 -88 -41 -18
-73 -9 -107 29 -22 26 -34 32 -55 28 -19 -4 -26 -12 -27 -29 -3 -56 -17 -81
-55 -99 -29 -13 -41 -14 -69 -5 -19 6 -42 21 -50 33 -12 18 -19 19 -42 11 -25
-8 -28 -15 -29 -53 0 -36 -6 -49 -32 -72 -40 -36 -80 -37 -120 -4 -27 22 -33
24 -57 13 -22 -10 -25 -16 -20 -40 11 -47 -4 -88 -38 -109 -41 -25 -78 -24
-110 1 -25 20 -28 20 -52 4 -16 -10 -24 -23 -20 -31 14 -39 16 -66 6 -91 -22
-52 -82 -72 -138 -45 -32 15 -34 14 -52 -8 -17 -21 -17 -25 -4 -46 20 -31 11
-89 -18 -114 -31 -27 -63 -33 -101 -20 -28 10 -35 9 -51 -8 -20 -19 -20 -20 1
-62 19 -39 20 -45 6 -77 -21 -52 -41 -63 -100 -58 -46 4 -53 2 -64 -19 -10
-20 -9 -27 10 -53 29 -40 23 -107 -12 -133 -29 -22 -68 -30 -90 -18 -13 7 -20
3 -32 -18 -13 -26 -12 -30 15 -61 39 -44 39 -89 0 -131 -23 -25 -37 -31 -69
-31 -27 0 -42 -5 -46 -16 -11 -28 -6 -54 9 -54 8 0 22 -11 30 -24 17 -25 28
-86 16 -86 -3 0 -8 -11 -9 -25 l-2 -25 2025 0 2025 0 9 24 c5 13 21 32 36 42
22 16 25 25 20 47 -6 21 -13 27 -36 27 -57 0 -96 33 -100 85 -3 41 2 54 30 82
26 26 27 32 16 53 -10 19 -21 24 -55 25 -85 2 -127 99 -69 161 20 21 21 27 9
49 -12 22 -18 24 -47 19 -40 -8 -87 10 -106 40 -19 28 -15 91 7 115 17 18 17
21 0 46 -12 18 -22 24 -33 19 -45 -20 -79 -16 -109 13 -40 36 -47 69 -25 113
18 34 18 35 -5 57 -22 22 -24 22 -48 7 -43 -29 -105 -9 -131 41 -13 24 -9 83
5 97 7 7 2 18 -16 33 -26 23 -27 23 -51 4 -35 -28 -85 -24 -121 9 -31 28 -38
57 -26 102 6 21 3 28 -18 39 -21 12 -28 11 -54 -8 -74 -52 -167 4 -155 93 3
27 0 34 -23 45 -23 10 -29 10 -36 -3 -12 -21 -61 -46 -91 -46 -14 0 -39 13
-56 29 -25 23 -31 37 -31 69 0 33 -4 41 -22 46 -37 9 -46 7 -53 -13 -3 -10
-20 -26 -37 -34 -67 -33 -138 13 -138 88 0 14 -6 25 -12 26 -7 0 -22 2 -33 4
-15 3 -24 -4 -34 -26 -34 -78 -161 -59 -177 26 -6 32 -9 35 -40 35 -24 0 -34
-5 -34 -16 0 -8 -13 -29 -29 -45 -51 -51 -127 -34 -156 35 -11 25 -19 31 -44
32 -26 0 -31 -3 -31 -24z m-300 -417 c25 -9 62 -27 82 -40 40 -27 98 -116 98
-152 0 -20 -4 -22 -32 -17 -20 4 -46 20 -65 41 -27 29 -37 34 -58 29 -19 -5
-25 -12 -21 -22 10 -25 -20 -82 -52 -98 -44 -23 -102 -9 -122 28 -11 21 -16
23 -41 14 -24 -8 -27 -14 -25 -41 5 -46 -9 -74 -46 -97 -38 -23 -82 -19 -114
11 -24 22 -33 23 -56 5 -15 -11 -16 -18 -7 -43 8 -24 7 -39 -5 -67 -23 -55
-86 -72 -144 -39 -28 16 -30 16 -47 -1 -15 -14 -16 -22 -6 -42 39 -86 -36
-167 -123 -134 -25 9 -33 8 -49 -8 -18 -19 -18 -20 1 -52 31 -50 14 -108 -38
-135 -16 -9 -32 -15 -35 -15 -2 1 -18 5 -35 10 -27 8 -32 6 -44 -18 -13 -26
-12 -29 10 -51 23 -23 31 -62 18 -95 -9 -24 -18 -20 -65 26 -56 55 -81 115
-81 192 -1 77 23 137 88 224 146 198 373 382 619 502 186 91 305 117 395 85z
m1016 4 c3 -5 14 -9 24 -9 53 0 342 -144 445 -223 189 -143 341 -296 412 -417
68 -115 55 -252 -34 -343 -50 -52 -58 -55 -71 -29 -13 24 -5 62 19 96 19 25
20 31 8 52 -8 16 -18 23 -28 19 -53 -21 -70 -18 -106 18 -39 39 -44 70 -20
118 21 39 5 75 -28 63 -42 -14 -105 -9 -126 10 -28 25 -37 78 -19 113 13 27
13 30 -8 46 -22 16 -25 16 -56 -3 -76 -45 -162 25 -137 112 6 22 3 30 -19 44
-18 12 -27 14 -30 5 -5 -15 -56 -41 -81 -41 -56 0 -105 58 -95 113 3 22 -1 30
-20 38 -22 10 -28 8 -48 -15 -63 -72 -167 -35 -173 61 -1 20 -8 29 -29 34 -23
6 -28 4 -36 -16 -16 -42 -95 -79 -106 -50 -18 46 81 171 158 198 46 17 195 21
204 6z m-896 -484 c81 -27 78 -13 78 -340 -1 -226 -4 -299 -15 -332 l-15 -43
-351 0 c-315 0 -358 2 -412 19 -65 20 -82 38 -89 92 -21 169 333 500 637 597
77 24 111 25 167 7z m763 -4 c82 -29 182 -78 262 -129 39 -24 72 -48 75 -51 3
-4 16 -15 29 -24 36 -24 140 -126 188 -184 55 -65 83 -126 83 -183 0 -76 -7
-87 -64 -105 -28 -9 -59 -20 -68 -26 -10 -5 -166 -9 -368 -9 l-349 0 -16 53
c-12 40 -15 115 -16 336 l-2 284 24 18 c53 42 137 49 222 20z"/>
<path d="M30 2703 l0 -53 55 0 c37 0 55 -4 56 -12 1 -7 1 -86 1 -175 0 -173
-3 -165 48 -165 11 0 33 0 50 1 l29 1 0 163 c0 89 1 167 1 174 0 7 20 13 53
15 l52 3 0 50 0 50 -172 0 -173 0 0 -52z"/>
<path d="M444 2745 c-3 -6 -3 -109 -2 -229 l3 -219 129 -1 c77 -1 130 3 132 9
2 6 5 28 7 50 l2 40 -75 5 -75 5 0 38 c-1 41 -1 41 81 38 49 -1 52 0 56 26 2
16 1 39 -2 53 -5 24 -8 26 -67 25 -35 -1 -63 1 -64 4 0 3 -2 18 -4 34 l-4 27
75 0 c74 0 74 0 75 28 0 15 2 37 3 50 2 12 -2 23 -8 23 -66 7 -259 3 -262 -6z"/>
<path d="M890 2750 c-4 -3 -13 -23 -19 -45 -6 -22 -38 -121 -70 -220 -33 -98
-59 -181 -56 -183 2 -2 31 -4 66 -5 l63 -1 14 42 c7 23 19 42 25 43 14 1 119
1 129 0 4 -1 11 -19 14 -41 6 -35 10 -40 33 -41 14 0 43 -1 65 -2 21 -1 40 3
42 8 2 6 -29 109 -69 230 l-73 220 -78 0 c-43 0 -81 -2 -86 -5z m104 -172 c10
-40 19 -77 20 -82 1 -13 -75 -15 -80 -1 -3 6 2 33 11 60 8 28 15 60 15 73 0
44 17 20 34 -50z"/>
<path d="M1250 2525 l0 -230 50 1 c27 0 53 3 57 7 4 4 6 70 5 147 0 77 1 140
3 140 2 0 8 -19 13 -42 20 -81 64 -233 71 -240 11 -13 103 -15 115 -3 6 6 26
69 45 138 19 70 37 127 41 127 3 0 6 -61 5 -135 0 -74 3 -135 7 -136 4 0 24
-1 43 -1 19 0 42 1 50 1 13 1 15 33 15 229 l0 228 -82 -1 c-63 0 -83 -4 -87
-15 -2 -8 -24 -80 -47 -159 l-42 -145 -32 105 c-17 57 -39 129 -48 159 l-17
55 -82 0 -83 1 0 -231z m407 63 c-3 -8 -6 -5 -6 6 -1 11 2 17 5 13 3 -3 4 -12
1 -19z"/>
<path d="M2030 2528 c0 -210 1 -228 18 -229 61 -4 192 3 226 12 62 17 121 81
135 147 29 137 -8 230 -108 275 -35 15 -70 20 -158 21 l-113 2 0 -228z m211
112 c33 -18 52 -68 46 -126 -3 -28 -11 -61 -18 -72 -16 -26 -59 -45 -90 -40
-23 3 -24 5 -24 126 l-1 122 34 0 c18 0 42 -5 53 -10z"/>
<path d="M2502 2746 c-7 -13 -7 -434 1 -442 5 -5 188 -9 250 -5 14 1 17 10 17
51 l0 50 -73 0 -74 0 0 40 c0 38 2 40 31 41 109 3 101 -1 104 54 l3 51 -71 -1
-70 -1 2 33 c2 36 2 36 91 34 l57 -2 0 53 0 53 -131 0 c-74 0 -133 -4 -137 -9z"/>
<path d="M2849 2730 c-1 -43 -1 -414 0 -425 1 -8 132 -11 279 -6 22 1 23 5 21
49 l-3 47 -86 5 -85 5 -2 145 c-1 80 -2 159 -3 176 l0 30 -60 0 c-57 -1 -60
-2 -61 -26z"/>
<path d="M3312 2738 c-73 -36 -112 -108 -112 -208 1 -144 69 -226 198 -236
174 -14 274 109 240 295 -20 115 -80 163 -208 168 -61 2 -84 -2 -118 -19z
m172 -107 c28 -28 35 -144 12 -188 -29 -56 -101 -61 -140 -10 -25 34 -29 139
-6 182 26 48 93 56 134 16z"/>
<path d="M3732 2750 c-4 -3 -8 -105 -7 -227 0 -171 3 -223 12 -224 7 0 29 -1
48 -1 19 0 42 1 50 1 13 1 15 33 15 229 l0 227 -56 0 c-30 0 -58 -2 -62 -5z"/>
<path d="M3921 2750 c-5 -3 -8 -25 -7 -50 l1 -45 54 -5 54 -5 0 -172 0 -173
23 -1 c112 -5 103 -18 103 144 0 78 0 157 0 175 l1 32 53 0 54 0 0 50 c1 31
-4 50 -11 51 -38 4 -319 3 -325 -1z"/>
<path d="M4288 2725 c-6 -55 2 -76 25 -75 12 1 36 2 53 1 l31 -1 0 -169 c0
-92 3 -172 6 -177 6 -10 98 -11 113 -1 6 3 9 80 9 176 l-1 171 26 1 c90 3 85
1 84 42 -1 20 -2 43 -3 50 -1 9 -42 12 -170 12 l-169 0 -4 -30z"/>
<path d="M4699 2710 c-3 -171 -1 -402 4 -407 5 -4 173 -7 250 -4 14 1 17 10
17 51 l0 50 -74 0 -75 0 1 40 c0 22 3 40 7 41 3 0 33 1 66 2 l60 2 0 50 0 50
-55 1 c-30 1 -60 2 -67 3 -6 0 -11 15 -11 31 l1 30 74 0 73 0 0 50 c0 28 -3
51 -7 51 -5 1 -65 2 -135 3 l-128 2 -1 -46z"/>
<path d="M484 2064 c-3 -11 -4 -24 -3 -30 5 -28 -5 -50 -35 -79 -27 -25 -33
-37 -29 -58 5 -23 11 -27 38 -27 43 0 90 -39 99 -81 7 -35 -14 -83 -44 -99
-19 -10 -19 -13 -5 -40 13 -25 20 -29 41 -24 58 15 122 -48 110 -109 -4 -17
-15 -41 -27 -53 -16 -18 -18 -25 -9 -46 10 -21 18 -24 65 -24 65 1 92 -20 102
-78 4 -29 1 -44 -16 -67 -20 -27 -21 -30 -5 -54 12 -18 22 -24 33 -19 60 25
116 8 137 -42 14 -33 10 -89 -7 -100 -14 -8 -10 -22 12 -43 20 -18 23 -19 45
-4 49 32 125 -3 140 -64 3 -12 1 -37 -5 -55 -10 -28 -9 -35 9 -53 20 -19 22
-19 51 -2 47 26 90 22 123 -12 29 -30 35 -57 23 -102 -5 -21 -1 -28 23 -43 17
-9 30 -12 30 -7 0 15 54 41 85 41 57 0 99 -56 89 -118 -4 -26 -1 -31 26 -40
25 -9 31 -8 40 7 5 10 23 24 40 31 64 26 135 -24 133 -94 -1 -30 3 -36 28 -41
23 -5 33 -1 56 25 26 28 47 35 95 31 31 -2 68 -49 68 -86 0 -28 4 -35 19 -35
11 0 26 -3 35 -6 10 -4 16 -1 16 8 0 29 54 68 94 68 46 0 96 -44 96 -84 0 -23
4 -26 35 -26 25 0 35 4 35 16 0 8 13 29 29 45 51 51 128 33 157 -36 10 -25 19
-32 39 -31 21 2 30 11 45 43 21 47 44 63 92 63 35 0 88 -42 88 -69 0 -8 11
-11 32 -9 27 3 33 8 39 35 8 41 26 63 62 78 47 19 97 -1 124 -50 6 -10 16 -12
37 -7 24 7 29 13 31 46 5 87 107 124 165 59 25 -27 30 -30 51 -19 20 9 24 20
25 55 2 79 83 126 144 84 14 -9 28 -21 31 -25 3 -5 18 -4 32 3 24 11 26 16 23
57 -4 52 11 83 50 100 36 17 62 15 98 -7 30 -19 32 -19 54 -2 20 15 22 20 12
46 -31 81 54 160 130 121 29 -14 34 -14 56 0 28 19 28 14 9 52 -40 80 27 160
113 134 32 -10 39 -9 57 8 19 19 19 21 2 49 -32 54 -19 108 35 140 24 15 37
17 64 9 31 -8 37 -6 53 14 18 22 18 23 -5 54 -54 71 -9 160 80 157 38 -1 45 2
55 24 10 22 9 28 -7 39 -27 18 -46 69 -38 100 11 41 53 74 95 74 32 0 38 4 48
30 11 28 9 31 -17 45 -29 15 -35 26 -44 79 -7 39 48 96 93 96 26 0 31 4 31 25
0 14 -6 25 -12 26 -7 0 -941 1 -2076 2 l-2063 2 -5 -21z m558 -47 c17 -31 -10
-102 -44 -113 -14 -4 -15 -10 -6 -34 8 -25 14 -29 41 -26 91 11 151 -101 86
-160 -23 -21 -24 -32 -3 -55 13 -14 21 -16 42 -8 78 30 148 -61 108 -139 -15
-30 -15 -34 0 -57 15 -23 18 -24 34 -10 23 21 83 19 111 -4 l23 -18 -40 -26
c-58 -37 -109 -50 -171 -44 -136 14 -233 109 -358 352 -42 83 -114 264 -129
327 -8 33 -6 33 168 32 107 -1 130 -4 138 -17z m840 14 c13 -1 -11 -41 -88
-148 -183 -257 -171 -245 -221 -237 -96 14 -170 91 -259 269 l-54 110 37 5
c29 4 486 4 585 1z m1875 -4 c10 -11 -101 -218 -146 -274 -53 -64 -106 -96
-165 -97 l-40 -1 -136 185 -137 185 56 5 c73 7 561 4 568 -3z m530 -1 c11 -10
-55 -194 -111 -311 -97 -201 -180 -311 -273 -357 -72 -35 -181 -33 -245 5 -61
36 -65 43 -29 62 36 18 58 19 91 2 22 -11 27 -10 42 9 16 20 16 23 -3 61 -18
38 -19 44 -5 76 21 51 83 78 128 55 13 -6 22 -2 35 18 15 24 15 28 2 38 -21
15 -39 50 -39 75 0 57 62 108 114 95 21 -5 27 -2 36 21 9 24 7 30 -20 55 -22
21 -30 37 -30 63 0 31 3 36 28 39 47 5 273 0 279 -6z m-1672 -106 c62 -26 100
-69 265 -295 85 -115 157 -215 162 -222 12 -15 -16 -81 -50 -116 -90 -95 -420
-147 -667 -106 -217 37 -289 74 -329 171 l-16 37 162 223 c90 123 177 237 194
255 78 78 178 97 279 53z m635 -843 c20 -91 -12 -191 -81 -257 -69 -66 -189
-109 -402 -144 -38 -7 -195 -18 -248 -18 -56 -1 -251 12 -259 17 -3 2 -26 6
-50 10 -73 10 -201 46 -256 71 -67 32 -121 85 -152 152 -21 46 -24 64 -20 124
3 38 10 74 16 80 27 27 82 -55 67 -102 -5 -15 0 -23 19 -31 23 -11 28 -9 55
20 23 25 37 31 69 31 46 0 91 -35 93 -72 1 -13 2 -29 3 -37 0 -8 13 -18 28
-22 24 -6 30 -3 46 26 52 88 170 51 181 -57 1 -5 14 -8 29 -8 23 0 30 6 40 34
15 42 76 71 116 56 32 -12 66 -49 66 -72 0 -16 6 -18 32 -15 28 3 33 8 39 37
8 36 41 68 74 71 45 4 61 -2 92 -37 26 -30 37 -35 58 -30 20 5 25 13 25 37 0
17 5 39 10 50 11 20 57 46 78 43 6 -1 21 -2 31 -3 11 0 32 -14 47 -30 23 -25
30 -28 51 -18 17 8 22 17 20 36 -5 36 11 78 36 96 26 18 36 9 47 -38z"/>
</g>
</svg>
