<svg xmlns="http://www.w3.org/2000/svg" viewBox="0 0 296 261.51"><title>TeamDeloitte-Logo2019</title><g id="c7812ba5-da31-4a1f-bde1-5380163a8a0b" data-name="Crank Split"><polygon points="7.56 143.65 7.56 122.72 1 122.72 1 114.79 23.36 114.79 23.36 122.72 16.82 122.72 16.82 143.65 7.56 143.65"/><path d="M24.36,117.53v5.94H17.82V144.4H10.56V123.47H4v-5.94H24.36m2-2H2v9.94H8.56V146.4H19.82V125.47h6.54v-9.94Z" transform="translate(-2 -1.74)" fill="#fff"/><polygon points="25.2 143.65 25.2 114.79 43.15 114.79 43.15 122.61 34.46 122.61 34.46 124.84 42.5 124.84 42.5 132.66 34.46 132.66 34.46 135.74 43.15 135.74 43.15 143.65 25.2 143.65"/><path d="M44.15,117.53v5.83H35.46v4.22h8v5.83h-8v5.07h8.69v5.92H28.2V117.53h16m2-2H26.2V146.4h20v-9.92H37.46v-1.07h8v-9.83h-8v-.22h8.69v-9.83Z" transform="translate(-2 -1.74)" fill="#fff"/><path d="M64.56,145.4l-1.32-5H56.05l-1.36,5H44.57l9.42-29H65.12l9.53,29Zm-3.35-13-.83-3.16c-.21-.76-.46-1.72-.75-2.86-.34,1.39-.85,3.38-1.54,6Z" transform="translate(-2 -1.74)"/><path d="M64.4,117.42l8.87,27H65.33l-1.32-5H55.28l-1.36,5H46l8.76-27H64.4m-7.61,16H62.5L61.35,129c-.27-1-.6-2.25-1-3.8s-.64-2.67-.76-3.35c-.11.63-.33,1.66-.65,3.09s-1.05,4.26-2.16,8.47m9.05-18H53.26l-.45,1.39-8.76,27-.85,2.62H55.45l.4-1.48,1-3.56h5.66l.93,3.55.39,1.49H76l-.86-2.63-8.87-27-.46-1.38Zm-6.46,16c.09-.35.18-.69.27-1l.26,1Z" transform="translate(-2 -1.74)" fill="#fff"/><polygon points="97.1 143.65 97.1 131 93.54 143.65 85.12 143.65 81.6 131.26 81.6 143.65 73.17 143.65 73.17 114.79 84.58 114.79 89.51 131.53 94.33 114.79 105.77 114.79 105.77 143.65 97.1 143.65"/><path d="M106.77,117.53V144.4H100.1V132.62c0-.61,0-1.29,0-2s.11-2.58.25-5.49h-.16L94.79,144.4H87.88l-5.5-19.35h-.16c.26,3.29.38,5.85.38,7.68V144.4H76.17V117.53h9.67l5.6,19.08h.15l5.49-19.08h9.69m2-2H95.58L95.16,117,91.5,129.7,87.76,117l-.42-1.44H74.17V146.4H84.6v-6.21L86,144.94l.42,1.46H96.3l.41-1.46L98.1,140v6.4h10.67V115.53Z" transform="translate(-2 -1.74)" fill="#fff"/><path d="M121.33,145.4V116.53h10.3c4.55,0,8.14,1.21,10.67,3.58s3.83,5.85,3.83,10.29c0,4.74-1.34,8.46-4,11.07s-6.39,3.93-11.11,3.93Zm9.87-8c1.91,0,3.24-.5,4.07-1.54s1.33-2.86,1.33-5.25a7.65,7.65,0,0,0-1.24-4.84,4.43,4.43,0,0,0-3.66-1.41h-1.11v13Z" transform="translate(-2 -1.74)"/><path d="M131.63,117.53q6.47,0,10,3.31t3.52,9.56q0,6.72-3.7,10.36T131,144.4h-8.69V117.53h9.3m-2,20.91h1.61a5.83,5.83,0,0,0,4.85-1.92c1-1.28,1.55-3.23,1.55-5.87q0-3.69-1.46-5.47a5.42,5.42,0,0,0-4.44-1.78h-2.11v15m2-22.91h-11.3V146.4H131c5,0,9-1.42,11.81-4.21s4.3-6.78,4.3-11.79c0-4.72-1.39-8.43-4.15-11s-6.54-3.85-11.35-3.85Zm0,9.87h.11c2,0,2.68.79,2.89,1a6.84,6.84,0,0,1,1,4.2,7.62,7.62,0,0,1-1.1,4.62,3.76,3.76,0,0,1-2.91,1.17v-11Z" transform="translate(-2 -1.74)" fill="#fff"/><polygon points="146.94 143.65 146.94 114.79 164.89 114.79 164.89 122.61 156.2 122.61 156.2 124.84 164.25 124.84 164.25 132.66 156.2 132.66 156.2 135.74 164.89 135.74 164.89 143.65 146.94 143.65"/><path d="M165.89,117.53v5.83H157.2v4.22h8.05v5.83H157.2v5.07h8.69v5.92H150V117.53h15.94m2-2H148V146.4h19.94v-9.92H159.2v-1.07h8.05v-9.83H159.2v-.22h8.69v-9.83Z" transform="translate(-2 -1.74)" fill="#fff"/><polygon points="167.6 143.65 167.6 114.79 176.85 114.79 176.85 135.79 187.2 135.79 187.2 143.65 167.6 143.65"/><path d="M177.86,117.53v21H188.2v5.86H170.6V117.53h7.26m2-2H168.6V146.4h21.6v-9.86H179.86v-21Z" transform="translate(-2 -1.74)" fill="#fff"/><path d="M204.57,145.76c-4.48,0-8-1.29-10.42-3.85s-3.64-6.25-3.64-11,1.22-8.39,3.62-10.93,6-3.85,10.48-3.85,8,1.29,10.44,3.83,3.58,6.21,3.58,11-1.21,8.46-3.59,11S209.11,145.76,204.57,145.76Zm0-21.7c-1.92,0-4.46.72-4.46,6.87s2.52,6.79,4.42,6.79a3.67,3.67,0,0,0,3.27-1.47c.76-1.08,1.15-2.87,1.15-5.32s-.39-4.27-1.17-5.37A3.63,3.63,0,0,0,204.61,124.06Z" transform="translate(-2 -1.74)"/><path d="M204.61,117.11q6.4,0,9.72,3.51t3.3,10.31q0,6.78-3.32,10.31t-9.74,3.52q-6.31,0-9.69-3.54t-3.37-10.33q0-6.7,3.35-10.24c2.24-2.36,5.48-3.54,9.75-3.54m0,21.61a4.66,4.66,0,0,0,4.09-1.89q1.34-1.89,1.33-5.9T208.64,125a4.58,4.58,0,0,0-4-1.92q-5.46,0-5.46,7.86t5.42,7.79m0-23.61c-4.82,0-8.58,1.4-11.2,4.16s-3.9,6.64-3.9,11.62,1.32,9,3.92,11.71,6.38,4.16,11.14,4.16,8.59-1.39,11.19-4.15,3.87-6.66,3.87-11.68-1.29-9-3.85-11.68-6.34-4.14-11.17-4.14Zm0,21.61c-1.11,0-3.42,0-3.42-5.79s2.33-5.86,3.46-5.86a2.58,2.58,0,0,1,2.39,1.07c.45.64,1,2,1,4.79s-.53,4.12-1,4.75a2.64,2.64,0,0,1-2.45,1Z" transform="translate(-2 -1.74)" fill="#fff"/><rect x="219.48" y="114.79" width="9.29" height="28.86"/><path d="M229.78,117.53V144.4h-7.29V117.53h7.29m2-2H220.49V146.4h11.29V115.53Z" transform="translate(-2 -1.74)" fill="#fff"/><polygon points="237.18 143.65 237.18 122.72 230.62 122.72 230.62 114.79 252.98 114.79 252.98 122.72 246.44 122.72 246.44 143.65 237.18 143.65"/><path d="M254,117.53v5.94h-6.54V144.4h-7.26V123.47h-6.56v-5.94H254m2-2H231.62v9.94h6.56V146.4h11.26V125.47H256v-9.94Z" transform="translate(-2 -1.74)" fill="#fff"/><polygon points="259.41 143.65 259.41 122.72 252.85 122.72 252.85 114.79 275.21 114.79 275.21 122.72 268.67 122.72 268.67 143.65 259.41 143.65"/><path d="M276.21,117.53v5.94h-6.54V144.4h-7.26V123.47h-6.56v-5.94h20.36m2-2H253.85v9.94h6.56V146.4h11.26V125.47h6.54v-9.94Z" transform="translate(-2 -1.74)" fill="#fff"/><polygon points="277.05 143.65 277.05 114.79 295 114.79 295 122.61 286.31 122.61 286.31 124.84 294.36 124.84 294.36 132.66 286.31 132.66 286.31 135.74 295 135.74 295 143.65 277.05 143.65"/><path d="M296,117.53v5.83h-8.69v4.22h8.05v5.83h-8.05v5.07H296v5.92H280.05V117.53H296m2-2H278.05V146.4H298v-9.92h-8.69v-1.07h8.05v-9.83h-8.05v-.22H298v-9.83Z" transform="translate(-2 -1.74)" fill="#fff"/><path d="M63.88,102.09H89.67c-4.88-3.86-6.07-10.44-2.36-16.5,0,0,5.32-8.69,16.64-17s21.21-10.73,21.21-10.73c8.75-2.16,15.92,3.45,15.94,12.46l.07,31.75H160l-.16-31.83c-.05-9,7.08-14.67,15.85-12.57,0,0,9.91,2.37,21.29,10.58s16.76,16.86,16.76,16.86c3.89,6.27,2.51,13.14-2.83,17h26.23A5.85,5.85,0,0,1,241,96.65c-.44-1.11-.91-2.22-1.39-3.32A5.83,5.83,0,0,1,234.26,83c-.61-1-1.24-2.06-1.89-3.07a5.83,5.83,0,0,1-6.89-9.41c-.77-.92-1.55-1.82-2.35-2.72a5.84,5.84,0,0,1-8.29-8.21c-.9-.79-1.81-1.56-2.74-2.32a5.83,5.83,0,0,1-9.46-6.82c-1-.65-2-1.27-3.07-1.88a5.83,5.83,0,0,1-10.41-5.26c-1.1-.48-2.21-.94-3.32-1.38a5.83,5.83,0,0,1-11.11-3.56c-1.16-.3-2.33-.57-3.5-.82a5.84,5.84,0,0,1-11.53-1.78c-1.2-.11-2.39-.21-3.59-.27a5.83,5.83,0,0,1-11.66,0c-1.2.08-2.39.18-3.58.3a5.84,5.84,0,0,1-11.52,1.87c-1.17.26-2.33.54-3.49.84a5.83,5.83,0,0,1-11.08,3.64c-1.12.44-2.22.9-3.32,1.39a5.83,5.83,0,0,1-10.38,5.32c-1,.61-2,1.23-3.06,1.88a5.84,5.84,0,0,1-9.42,6.9c-.91.76-1.82,1.55-2.72,2.35a5.83,5.83,0,0,1-8.21,8.28c-.78.9-1.56,1.82-2.32,2.75a5.83,5.83,0,0,1-6.82,9.46c-.64,1-1.27,2-1.87,3.07A5.84,5.84,0,0,1,61.39,94c-.48,1.1-.94,2.21-1.37,3.32A5.83,5.83,0,0,1,63.88,102.09Z" transform="translate(-2 -1.74)" fill="#86bc25" stroke="#fff" stroke-miterlimit="10" stroke-width="2"/><path d="M237.6,160.42a5.68,5.68,0,0,1,.43-1h-13a65.81,65.81,0,0,1-9.9,18.39c-5.81,6.89-14.91,6.57-20.22-.71L182,159.41H158.43a16,16,0,0,1,2,2.27l19.41,26.42c5.33,7.27,2.88,16-5.44,19.49,0,0-9.41,3.9-23.44,3.95s-23.47-3.78-23.47-3.78c-8.35-3.4-10.86-12.15-5.58-19.45l19.22-26.56a15.29,15.29,0,0,1,2.07-2.34H119.67l-12.94,18c-5.26,7.32-14.36,7.7-20.21.85,0,0-5.89-6.89-10.24-18.86H63a5.48,5.48,0,0,1,.84,1.63,5.84,5.84,0,0,1-3.57,7.31c.44,1.11.91,2.22,1.39,3.31A5.84,5.84,0,0,1,67,182.05c.61,1,1.23,2,1.88,3.06a5.83,5.83,0,0,1,6.89,9.41c.77.92,1.55,1.82,2.36,2.72a5.83,5.83,0,0,1,8.28,8.21c.9.79,1.81,1.56,2.75,2.32a5.83,5.83,0,0,1,9.46,6.82c1,.65,2,1.27,3.07,1.88a5.83,5.83,0,0,1,10.4,5.26q1.65.72,3.33,1.38a5.83,5.83,0,0,1,11.1,3.56c1.16.3,2.33.57,3.5.82a5.84,5.84,0,0,1,11.53,1.78c1.2.11,2.39.21,3.59.27a5.83,5.83,0,0,1,11.66,0c1.2-.08,2.39-.18,3.58-.3a5.84,5.84,0,0,1,11.52-1.87c1.17-.26,2.33-.54,3.49-.84a5.83,5.83,0,0,1,11.08-3.64c1.12-.44,2.22-.9,3.32-1.39a5.83,5.83,0,0,1,10.38-5.32c1-.61,2.05-1.23,3.06-1.88a5.84,5.84,0,0,1,9.42-6.9c.92-.76,1.82-1.55,2.72-2.35a5.83,5.83,0,0,1,8.21-8.28c.78-.9,1.56-1.82,2.32-2.75a5.83,5.83,0,0,1,6.82-9.46c.64-1,1.27-2,1.87-3.07A5.84,5.84,0,0,1,239.86,171c.48-1.1.94-2.21,1.37-3.32A5.83,5.83,0,0,1,237.6,160.42Z" transform="translate(-2 -1.74)" fill="#86bc25" stroke="#fff" stroke-miterlimit="10" stroke-width="2"/><path d="M276.45,158.14" transform="translate(-2 -1.74)" fill="none" stroke="#000" stroke-miterlimit="10" stroke-width="5"/><path d="M30.76,160.89" transform="translate(-2 -1.74)" fill="none" stroke="#000" stroke-miterlimit="10" stroke-width="5"/><path d="M30.37,104.41V103H29.6l.77-1.37v-2h.74a4.86,4.86,0,0,0-3.45-5.29l-1-.29.31-1c.4-1.24.81-2.47,1.24-3.7l.34-1,1,.37a4.91,4.91,0,0,0,1.73.32,4.81,4.81,0,0,0,4.49-3,4.86,4.86,0,0,0-2.59-6.26l-.94-.4.43-.93c.54-1.19,1.1-2.36,1.68-3.53l.46-.92.9.48a4.83,4.83,0,0,0,6.49-1.94,4.86,4.86,0,0,0-1.81-6.52l-.89-.52.54-.87c.68-1.11,1.39-2.2,2.1-3.29l.57-.86.84.58a4.77,4.77,0,0,0,2.73.85,4.83,4.83,0,0,0,2.93-8.69l-.82-.62.63-.8c.82-1,1.64-2,2.47-3l.66-.78.77.68a4.83,4.83,0,0,0,6.56-7.1l-.74-.71.73-.72c.93-.92,1.87-1.83,2.82-2.71l.75-.71.68.78a4.85,4.85,0,0,0,3.63,1.64A4.93,4.93,0,0,0,70.45,38a4.87,4.87,0,0,0,.61-6.75l-.65-.8.81-.63c1-.8,2.07-1.58,3.13-2.35l.83-.6.58.85a4.83,4.83,0,0,0,4,2.1,4.74,4.74,0,0,0,2.65-.8,4.85,4.85,0,0,0,1.42-6.62l-.55-.87.88-.53q1.7-1,3.39-1.95l.9-.5.48.91a4.81,4.81,0,0,0,4.29,2.61,4.76,4.76,0,0,0,2.15-.51,4.86,4.86,0,0,0,2.21-6.4l-.44-.93.94-.41c1.19-.53,2.4-1,3.6-1.53l.95-.38.36,1a4.83,4.83,0,0,0,9.11-3.23l-.32-1,1-.3c1.25-.38,2.5-.73,3.76-1.08l1-.27.24,1a4.84,4.84,0,0,0,9.44-2.11l-.2-1,1-.18c1.29-.22,2.57-.43,3.86-.62l1-.15L133,5a4.84,4.84,0,0,0,4.79,4.24l.49,0A4.86,4.86,0,0,0,142.61,4l-.08-1,1-.06q1.95-.11,3.9-.15l1,0v1a4.85,4.85,0,0,0,4.73,4.83h.1A4.82,4.82,0,0,0,158.14,4l.05-1,1,.06c1.3.09,2.6.19,3.89.31l1,.1-.13,1a4.86,4.86,0,0,0,4.12,5.38,5.34,5.34,0,0,0,.69.05,4.81,4.81,0,0,0,4.76-4.07l.17-1,1,.19c1.28.24,2.55.5,3.83.78l1,.22-.25,1a4.84,4.84,0,0,0,9.34,2.5l.29-1,1,.31c1.25.39,2.48.81,3.71,1.24l1,.34-.36,1a4.85,4.85,0,0,0,2.7,6.21,4.71,4.71,0,0,0,1.81.36,4.83,4.83,0,0,0,4.45-3l.4-.94.94.42c1.18.55,2.35,1.11,3.53,1.69l.91.45-.47.91A4.86,4.86,0,0,0,210.46,24a4.79,4.79,0,0,0,2.33.6A4.85,4.85,0,0,0,217,22.19l.51-.89.88.54q1.65,1,3.3,2.1l.85.56-.58.84A4.86,4.86,0,0,0,223.1,32a4.81,4.81,0,0,0,6.68-1l.62-.81.8.63c1.07.85,2.13,1.71,3.17,2.59l.79.66-.68.76a4.85,4.85,0,0,0,.33,6.76,4.82,4.82,0,0,0,6.76-.19l.71-.74.72.73c.92.93,1.82,1.87,2.71,2.82l.7.75-.77.68A4.84,4.84,0,0,0,251.9,53l.79-.65.63.82q1.2,1.55,2.34,3.12l.61.84-.85.58a4.83,4.83,0,0,0,5.32,8.07l.86-.55.53.89q1,1.68,1.95,3.39l.49.89-.91.48a4.85,4.85,0,0,0-2.09,6.44A4.8,4.8,0,0,0,265.9,80a4.74,4.74,0,0,0,2.06-.47l.93-.44.42.94c.52,1.19,1,2.39,1.52,3.6l.38,1-1,.36a4.84,4.84,0,0,0,3.23,9.12l1-.32.3,1c.38,1.24.74,2.5,1.08,3.75l.26,1-1,.24a4.85,4.85,0,0,0-3.16,2.55v2.15Zm175.29-4.75,22.14-7.25c5.42-1.77,9.34-5.32,11-10s1-9.92-2-14.76c-.07-.12-7.52-11.92-22.86-23s-28.89-14.4-29-14.43a20.45,20.45,0,0,0-4.72-.58A15.61,15.61,0,0,0,169,34.14a17.31,17.31,0,0,0-4.71,12.47l.23,45.23a18.42,18.42,0,0,0,1.67,7.82Zm-70.63,0a18.51,18.51,0,0,0,1.55-7.7l-.1-45.23c0-9.91-6.55-16.83-15.9-16.83a20,20,0,0,0-4.85.62c-.13,0-13.66,3.47-28.92,14.64s-22.62,23-22.69,23.14c-3,4.86-3.66,10.1-1.93,14.76S67.87,91.25,73.3,93l20.91,6.68Z" transform="translate(-2 -1.74)"/><path d="M147.48,3.8a5.82,5.82,0,0,0,5.71,5.82h.13A5.83,5.83,0,0,0,159.14,4c1.29.08,2.58.19,3.87.31A5.83,5.83,0,0,0,174.56,6c1.27.24,2.54.5,3.8.77a5.83,5.83,0,0,0,4.15,7.05A5.72,5.72,0,0,0,184,14a5.83,5.83,0,0,0,5.6-4.22c1.23.39,2.46.8,3.68,1.23a5.84,5.84,0,0,0,3.27,7.5,5.76,5.76,0,0,0,2.18.43,5.84,5.84,0,0,0,5.37-3.56c1.17.54,2.34,1.1,3.5,1.67a5.84,5.84,0,0,0,10.22,5.64c1.09.68,2.18,1.37,3.27,2.09a5.83,5.83,0,0,0,9.46,6.82c1.06.84,2.12,1.69,3.15,2.56a5.83,5.83,0,0,0,8.56,7.92c.91.93,1.81,1.86,2.69,2.8a5.84,5.84,0,0,0,7.55,8.9c.79,1,1.57,2.06,2.32,3.1a5.84,5.84,0,0,0,6.42,9.75c.66,1.11,1.31,2.23,1.93,3.36a5.84,5.84,0,0,0,5.19,10.46c.52,1.18,1,2.37,1.51,3.57a5.84,5.84,0,0,0,3.89,11c.38,1.23.73,2.48,1.07,3.72a5.84,5.84,0,0,0-3.92,3.29v1.38H31.37V102h-.06l.06-.12v-1.25h.54s0-.08,0-.13a5.83,5.83,0,0,0-4-7.12c.39-1.23.81-2.46,1.24-3.68a5.84,5.84,0,0,0,4.37-10.82c.54-1.17,1.1-2.33,1.68-3.5a5.73,5.73,0,0,0,2.71.68A5.84,5.84,0,0,0,40.86,65.2c.68-1.09,1.38-2.18,2.09-3.27a5.77,5.77,0,0,0,3.3,1,5.83,5.83,0,0,0,3.53-10.48c.8-1,1.62-2,2.45-3a5.83,5.83,0,0,0,7.91-8.57c.93-.91,1.86-1.81,2.8-2.69a5.84,5.84,0,0,0,8.89-7.56c1-.79,2.06-1.57,3.1-2.33a5.84,5.84,0,0,0,9.75-6.42c1.11-.66,2.23-1.31,3.36-1.93a5.84,5.84,0,0,0,10.45-5.2c1.18-.52,2.37-1,3.57-1.51a5.83,5.83,0,0,0,11-3.9c1.24-.38,2.49-.73,3.73-1.07a5.85,5.85,0,0,0,5.66,4.43,6.27,6.27,0,0,0,1.28-.14,5.84,5.84,0,0,0,4.45-6.84c1.27-.23,2.55-.43,3.83-.62a5.83,5.83,0,0,0,5.78,5.12l.59,0A5.84,5.84,0,0,0,143.6,4c1.29-.07,2.59-.12,3.88-.15m18.09,96.86h40.24l22.3-7.3c11.82-3.86,16.12-15.67,9.55-26.23,0,0-7.42-11.94-23.12-23.26s-29.38-14.6-29.38-14.6a21.65,21.65,0,0,0-4.95-.6c-9.71,0-17,7.27-16.92,17.95l.23,45.23a19.15,19.15,0,0,0,2,8.81m-71.52,0h41.61a19.27,19.27,0,0,0,1.92-8.7l-.1-45.23c0-10.63-7.25-17.83-16.9-17.83a21.37,21.37,0,0,0-5.09.64s-13.65,3.38-29.27,14.81S63.27,67.77,63.27,67.77C56.77,78.38,61.15,90.15,73,93.93l21,6.73M149.48,1.74l-2,.06c-1.31,0-2.64.08-3.94.16l-2,.11.16,2a3.86,3.86,0,0,1-3.44,4.11l-.39,0A3.84,3.84,0,0,1,134,4.87l-.25-2-2,.29c-1.27.19-2.58.4-3.89.63l-2,.36.4,2a3.84,3.84,0,0,1-2.91,4.49,3.53,3.53,0,0,1-.85.1,3.84,3.84,0,0,1-3.72-2.92l-.49-2-2,.54c-1.29.35-2.57.72-3.78,1.09l-2,.59.64,2a3.86,3.86,0,0,1-2.35,4.82,4.05,4.05,0,0,1-1.28.22,3.86,3.86,0,0,1-3.59-2.48l-.73-1.92-1.9.78c-1.24.5-2.46,1-3.62,1.53l-1.88.83.88,1.86a3.85,3.85,0,0,1-1.76,5.07,3.74,3.74,0,0,1-1.7.41A3.83,3.83,0,0,1,89.81,19l-1-1.82-1.79,1c-1.18.65-2.33,1.32-3.42,2l-1.76,1.06L83,23a3.83,3.83,0,0,1-3.23,5.89,3.82,3.82,0,0,1-3.17-1.67l-1.17-1.7-1.66,1.22c-1.09.79-2.15,1.58-3.15,2.36L69,30.33l1.3,1.59a3.84,3.84,0,0,1-5.84,5l-1.36-1.55-1.5,1.4c-.92.86-1.85,1.75-2.84,2.74l-1.46,1.44,1.48,1.42a3.86,3.86,0,0,1,.15,5.37,3.79,3.79,0,0,1-2.81,1.23,3.88,3.88,0,0,1-2.55-1L52,46.61,50.7,48.18c-.79.94-1.61,1.94-2.49,3l-1.27,1.61,1.63,1.23a3.84,3.84,0,0,1-4.49,6.22L42.4,59.13l-1.12,1.71c-.79,1.19-1.48,2.28-2.12,3.32L38.09,65.9l1.77,1a3.84,3.84,0,0,1-1.93,7.16,3.73,3.73,0,0,1-1.78-.45l-1.81-1-.91,1.84c-.62,1.24-1.18,2.41-1.7,3.55L30.87,80l1.89.8a3.86,3.86,0,0,1,2.05,5,3.81,3.81,0,0,1-3.56,2.4,3.87,3.87,0,0,1-1.37-.26L28,87.13l-.69,1.93c-.42,1.21-.85,2.46-1.25,3.74l-.63,2,2,.57a3.86,3.86,0,0,1,2.75,3.33h-.76v2.71L27.76,104h1.61v1.38H272.94v-2.9a3.82,3.82,0,0,1,2.4-1.83l2-.49-.54-2c-.35-1.29-.71-2.56-1.09-3.79l-.59-2-1.94.64a3.87,3.87,0,0,1-1.21.19,3.83,3.83,0,0,1-1.35-7.42l1.91-.73-.77-1.89c-.49-1.21-1-2.43-1.53-3.63l-.83-1.88-1.85.88a3.89,3.89,0,0,1-1.64.37,3.84,3.84,0,0,1-1.77-7.24l1.82-1L265,69c-.63-1.13-1.29-2.28-2-3.41l-1.05-1.77-1.74,1.1A3.84,3.84,0,0,1,256,58.53l1.7-1.16-1.21-1.66c-.75-1-1.54-2.1-2.36-3.15l-1.25-1.63-1.6,1.3a3.77,3.77,0,0,1-2.43.87,3.84,3.84,0,0,1-2.53-6.72L247.84,45l-1.4-1.5c-.86-.92-1.75-1.85-2.73-2.84l-1.44-1.46-1.42,1.48a3.84,3.84,0,0,1-5.37.15,3.87,3.87,0,0,1-.26-5.36L236.58,34,235,32.63c-.94-.79-2-1.62-3.2-2.6l-1.6-1.27L229,30.39a3.82,3.82,0,0,1-5.3.8,3.86,3.86,0,0,1-.91-5.28l1.15-1.69-1.71-1.12c-1.21-.79-2.3-1.49-3.32-2.11l-1.75-1.07-1,1.77A3.84,3.84,0,0,1,209.4,18l.95-1.81-1.83-.91c-1.2-.59-2.4-1.17-3.56-1.7l-1.86-.85-.81,1.89a3.83,3.83,0,0,1-3.53,2.34,3.91,3.91,0,0,1-1.43-.28,3.86,3.86,0,0,1-2.15-4.93l.73-1.92L194,9.13c-1.23-.44-2.49-.86-3.73-1.26l-2-.62-.57,2A3.86,3.86,0,0,1,184,12a3.76,3.76,0,0,1-1-.13,3.86,3.86,0,0,1-2.73-4.63l.5-2-2-.44c-1.29-.28-2.58-.55-3.86-.79l-2-.38-.33,2a3.82,3.82,0,0,1-3.78,3.23,5.09,5.09,0,0,1-.55,0A3.87,3.87,0,0,1,165,4.58l.25-2-2-.19c-1.3-.12-2.62-.23-3.93-.32l-2-.13L157.14,4a3.81,3.81,0,0,1-3.82,3.67h-.09a3.85,3.85,0,0,1-3.75-3.83v-2Zm17.36,96.92a17.57,17.57,0,0,1-1.32-6.82l-.23-45.23a16.37,16.37,0,0,1,4.42-11.77,14.61,14.61,0,0,1,10.5-4.17,19.55,19.55,0,0,1,4.49.55c.13,0,13.51,3.34,28.67,14.27S235.89,68.07,236,68.19c2.85,4.57,3.54,9.51,1.94,13.88s-5.29,7.72-10.41,9.39l-22,7.2Zm-72.47,0L73.61,92c-5.13-1.64-8.86-5-10.48-9.32s-1-9.3,1.84-13.89C65,68.7,72.33,57,87.4,46S115.84,31.52,116,31.49a19.05,19.05,0,0,1,4.61-.59c8.76,0,14.89,6.51,14.9,15.83l.1,45.23a17.76,17.76,0,0,1-1.21,6.7Z" transform="translate(-2 -1.74)" fill="#fff"/><path d="M152.77,261.21a4.86,4.86,0,0,0-4.73-4.83h-.1a4.82,4.82,0,0,0-4.83,4.63l-.05,1-1-.07c-1.3-.09-2.6-.19-3.89-.31l-1-.1.13-1a4.86,4.86,0,0,0-4.12-5.38,5.34,5.34,0,0,0-.69,0,4.81,4.81,0,0,0-4.76,4.07l-.17,1-1-.2c-1.28-.24-2.55-.5-3.83-.78l-1-.22.25-1a4.84,4.84,0,0,0-9.34-2.5l-.29,1-1-.31c-1.23-.39-2.47-.81-3.7-1.24l-1-.34.36-1a4.85,4.85,0,0,0-2.7-6.21,4.7,4.7,0,0,0-1.81-.35A4.82,4.82,0,0,0,98,250l-.4,1-.94-.43c-1.18-.55-2.35-1.11-3.53-1.69l-.91-.45.47-.91A4.85,4.85,0,0,0,90.79,241a4.76,4.76,0,0,0-2.33-.6,4.85,4.85,0,0,0-4.19,2.41l-.51.89-.88-.54q-1.65-1-3.3-2.1l-.85-.56.58-.84A4.83,4.83,0,0,0,71.47,234l-.62.81-.8-.63c-1.07-.85-2.13-1.71-3.17-2.59l-.79-.66.68-.76a4.85,4.85,0,0,0-.33-6.76,4.82,4.82,0,0,0-6.76.19l-.71.74-.72-.73c-.92-.93-1.83-1.87-2.71-2.82l-.7-.75.77-.68a4.84,4.84,0,0,0-3.2-8.47,4.8,4.8,0,0,0-3,1.1l-.8.65-.63-.82c-.8-1-1.58-2.07-2.34-3.13l-.61-.83.85-.58a4.83,4.83,0,0,0-2.73-8.82,4.79,4.79,0,0,0-2.58.75l-.87.55-.53-.89q-1-1.68-1.95-3.39l-.49-.9.91-.47a4.85,4.85,0,0,0,2.09-6.44,4.81,4.81,0,0,0-6.39-2.22l-.93.44L32,185c-.53-1.19-1-2.4-1.53-3.6l-.38-1,1-.36a4.84,4.84,0,0,0-1.71-9.36,4.93,4.93,0,0,0-1.52.24l-1,.33-.3-1c-.38-1.24-.74-2.5-1.08-3.75l-.26-1,1-.24a4.82,4.82,0,0,0,3.64-4.22l0-.95v-.28c0-.11,0-.19-.05-.28l-.26-1.21h.31v-2h247.8v4.75h-.36l-.1.42-1-.24a4.71,4.71,0,0,0-1.18-.15,4.83,4.83,0,0,0-1.33,9.48l1,.29-.31,1c-.39,1.24-.81,2.47-1.24,3.7l-.34,1-1-.37a4.91,4.91,0,0,0-1.73-.32,4.81,4.81,0,0,0-4.49,3,4.86,4.86,0,0,0,2.59,6.26l.94.4-.43.93c-.54,1.19-1.1,2.36-1.68,3.53l-.46.92-.9-.48a4.84,4.84,0,0,0-4.68,8.46l.88.52-.53.87c-.68,1.11-1.39,2.2-2.1,3.3l-.56.85-.84-.58A4.82,4.82,0,0,0,255,203a4.88,4.88,0,0,0-3.93,2,4.81,4.81,0,0,0,1,6.69l.81.62-.63.8c-.82,1-1.64,2-2.47,3l-.66.78-.77-.68a4.88,4.88,0,0,0-3.21-1.22,4.81,4.81,0,0,0-3.55,1.56,4.87,4.87,0,0,0,.2,6.77l.74.71-.73.72c-.93.91-1.87,1.82-2.82,2.7l-.75.71-.68-.78a4.84,4.84,0,0,0-7.37,6.27l.65.79-.81.63c-1,.8-2.07,1.58-3.13,2.35l-.83.6-.58-.85a4.86,4.86,0,0,0-4-2.1,4.74,4.74,0,0,0-2.65.8,4.85,4.85,0,0,0-1.42,6.62l.55.87-.89.53q-1.68,1-3.39,1.95l-.89.49-.48-.9a4.81,4.81,0,0,0-4.29-2.61,4.76,4.76,0,0,0-2.15.51,4.86,4.86,0,0,0-2.21,6.4l.44.93-.94.41c-1.19.53-2.4,1-3.6,1.53l-.95.38-.36-1a4.87,4.87,0,0,0-4.53-3.13,4.76,4.76,0,0,0-1.62.28,4.88,4.88,0,0,0-3,6.08l.33,1-1,.3c-1.25.38-2.5.74-3.76,1.08l-1,.27-.24-1a4.83,4.83,0,0,0-4.69-3.67,4.72,4.72,0,0,0-1.06.12,4.87,4.87,0,0,0-3.69,5.67l.2,1-1,.18c-1.28.22-2.57.43-3.86.62l-1,.15-.13-1a4.84,4.84,0,0,0-4.79-4.25l-.49,0a4.87,4.87,0,0,0-4.34,5.18l.08,1-1,.06q-1.95.1-3.9.15l-1,0Zm-1.88-94.94c-4.73,0-9.18,2.55-12.53,7.17l-26.51,36.65c-3.34,4.62-4.43,9.8-3.06,14.58s5,8.59,10.32,10.74c.12.05,12.92,5.15,31.63,5.15h.37c18.94-.06,31.83-5.32,32-5.38,5.27-2.18,8.9-6,10.24-10.82s.21-10-3.16-14.55l-26.77-36.46C160,168.79,155.59,166.27,150.89,166.27Zm-104.5-5.15c.48,1.76,1,3.46,1.55,5.15,5.91,18,14.9,28.63,15,28.74,3.53,4.13,8.09,6.4,12.83,6.4,5.14,0,10-2.74,13.48-7.51l23.57-32.78Zm166.19,32.32c3.49,4.79,8.26,7.42,13.43,7.42,4.78,0,9.36-2.31,12.89-6.5.09-.1,9-10.84,14.79-28.84.46-1.45.89-2.9,1.3-4.4H189Z" transform="translate(-2 -1.74)"/><path d="M276.56,157.37v2.75h-.16c0,.07,0,.14,0,.21a5.76,5.76,0,0,0-1.42-.18,5.83,5.83,0,0,0-1.61,11.44c-.39,1.23-.81,2.46-1.24,3.68a5.84,5.84,0,0,0-4.37,10.82c-.54,1.17-1.1,2.34-1.68,3.5a5.72,5.72,0,0,0-2.71-.67,5.84,5.84,0,0,0-2.94,10.88c-.67,1.09-1.37,2.18-2.08,3.27a5.77,5.77,0,0,0-3.3-1,5.84,5.84,0,0,0-3.53,10.49c-.8,1-1.62,2-2.45,3a5.83,5.83,0,0,0-7.91,8.57c-.92.92-1.86,1.81-2.8,2.69a5.84,5.84,0,0,0-8.89,7.56c-1,.79-2.06,1.57-3.1,2.33a5.84,5.84,0,0,0-9.75,6.42c-1.11.66-2.23,1.31-3.36,1.93a5.84,5.84,0,0,0-10.45,5.2c-1.18.52-2.37,1-3.57,1.51a5.83,5.83,0,0,0-11,3.9c-1.24.38-2.49.73-3.73,1.07a5.85,5.85,0,0,0-5.66-4.43,6.27,6.27,0,0,0-1.28.14,5.84,5.84,0,0,0-4.45,6.84c-1.27.23-2.55.43-3.83.62a5.83,5.83,0,0,0-5.78-5.12l-.59,0a5.84,5.84,0,0,0-5.23,6.26c-1.29.07-2.58.12-3.88.15a5.82,5.82,0,0,0-5.71-5.82h-.12a5.84,5.84,0,0,0-5.83,5.59c-1.29-.08-2.58-.19-3.87-.31A5.83,5.83,0,0,0,126.69,259c-1.27-.24-2.54-.49-3.8-.77a5.83,5.83,0,0,0-4.15-7.05,5.72,5.72,0,0,0-1.52-.2,5.83,5.83,0,0,0-5.6,4.22c-1.23-.39-2.46-.8-3.68-1.23a5.84,5.84,0,0,0-3.27-7.5,5.75,5.75,0,0,0-2.18-.42,5.84,5.84,0,0,0-5.37,3.55c-1.17-.54-2.34-1.1-3.5-1.67a5.83,5.83,0,0,0-10.21-5.64c-1.1-.68-2.19-1.37-3.28-2.08a5.84,5.84,0,0,0-1.39-8,5.77,5.77,0,0,0-3.41-1.1,5.84,5.84,0,0,0-4.66,2.31c-1.06-.84-2.12-1.69-3.15-2.56A5.83,5.83,0,0,0,59,222.92c-.91-.92-1.81-1.86-2.69-2.8a5.84,5.84,0,0,0-7.55-8.9c-.79-1-1.57-2.06-2.33-3.1A5.84,5.84,0,0,0,40,198.37c-.66-1.11-1.31-2.23-1.93-3.36a5.83,5.83,0,0,0-5.19-10.45c-.52-1.19-1-2.38-1.51-3.58a5.84,5.84,0,0,0-3.89-11c-.38-1.23-.73-2.48-1.07-3.72a5.85,5.85,0,0,0,4.41-6.14h0v-.35c0-.14,0-.28-.07-.42h.07v-2h245.8M226,201.86c4.88,0,9.79-2.27,13.65-6.85,0,0,9.06-10.76,15-29.19.63-1.95,1.17-3.85,1.65-5.7H187L211.77,194c3.8,5.2,9,7.83,14.24,7.83m-150.25.55c5.28,0,10.51-2.66,14.3-7.93l24.7-34.36H45.09c.54,2.08,1.16,4.24,1.9,6.46,6,18.39,15.18,29.07,15.18,29.07,3.86,4.52,8.75,6.76,13.59,6.76m75,39.15h.37c19.36-.07,32.34-5.45,32.34-5.45,11.49-4.77,14.87-16.86,7.51-26.89l-26.78-36.46c-3.66-5-8.48-7.49-13.29-7.49s-9.68,2.53-13.34,7.59L111,209.51c-7.29,10.07-3.83,22.14,7.69,26.83,0,0,12.86,5.22,32,5.22m127.82-86.19H28.76v2h-.55l.52,2.43,0,.13v1.37a3.8,3.8,0,0,1-2.85,3l-2,.5.54,2c.34,1.27.71,2.54,1.09,3.79l.59,2,1.95-.65a3.77,3.77,0,0,1,1.2-.19,3.83,3.83,0,0,1,1.35,7.42l-1.91.72.76,1.9c.49,1.21,1,2.43,1.54,3.63l.83,1.88,1.86-.88a3.82,3.82,0,0,1,5.07,1.76,3.86,3.86,0,0,1-1.66,5.11l-1.83,1,1,1.8c.62,1.12,1.28,2.27,2,3.41l1.05,1.77,1.74-1.1a3.86,3.86,0,0,1,5.26,1.13,3.87,3.87,0,0,1-1,5.28l-1.7,1.16,1.21,1.66c.75,1,1.55,2.1,2.36,3.16l1.26,1.62,1.59-1.3a3.75,3.75,0,0,1,2.42-.86A3.83,3.83,0,0,1,55,218.62L53.41,220l1.4,1.5c.85.92,1.75,1.85,2.73,2.84L59,225.78l1.42-1.47a3.8,3.8,0,0,1,2.76-1.18A3.83,3.83,0,0,1,66,229.51l-1.37,1.54,1.57,1.32c1,.8,2,1.62,3.2,2.6l1.6,1.27,1.24-1.63a3.83,3.83,0,0,1,6.21,4.48l-1.15,1.69L79,241.9c1.22.8,2.3,1.49,3.32,2.11l1.75,1.07,1-1.77A3.83,3.83,0,0,1,91.85,247l-.95,1.81,1.83.91c1.21.6,2.41,1.17,3.56,1.7l1.86.85L99,250.4a3.82,3.82,0,0,1,3.53-2.33,3.72,3.72,0,0,1,1.43.28,3.84,3.84,0,0,1,2.15,4.92l-.73,1.92,1.93.68c1.27.45,2.52.87,3.74,1.26l2,.62.57-2a3.85,3.85,0,0,1,3.68-2.77,3.76,3.76,0,0,1,1,.13,3.86,3.86,0,0,1,2.73,4.63l-.5,2,2,.44c1.23.27,2.53.54,3.86.79l2,.38.32-2a3.83,3.83,0,0,1,3.78-3.23,5.09,5.09,0,0,1,.55,0,3.87,3.87,0,0,1,3.27,4.27l-.25,2,2,.2c1.25.12,2.57.23,3.93.32l2,.13.09-2.05a3.82,3.82,0,0,1,3.83-3.67H148a3.85,3.85,0,0,1,3.75,3.83v2l2-.05c1.27,0,2.6-.08,3.94-.15l2-.12-.16-2a3.87,3.87,0,0,1,3.44-4.12l.39,0a3.84,3.84,0,0,1,3.8,3.37l.25,2,2-.29c1.29-.19,2.6-.4,3.89-.63l2-.36-.41-2a3.83,3.83,0,0,1,2.93-4.5,3.93,3.93,0,0,1,.84-.09,3.84,3.84,0,0,1,3.72,2.92l.49,2,2-.54c1.27-.34,2.55-.71,3.79-1.09l2-.59-.65-1.95a3.87,3.87,0,0,1,2.36-4.82,4.05,4.05,0,0,1,1.28-.22,3.86,3.86,0,0,1,3.59,2.48l.73,1.92,1.89-.78c1.25-.5,2.47-1,3.63-1.53l1.88-.83-.88-1.86a3.85,3.85,0,0,1,1.76-5.07,3.74,3.74,0,0,1,1.7-.41,3.85,3.85,0,0,1,3.41,2.07l.95,1.82,1.79-1c1.14-.63,2.29-1.29,3.42-2l1.76-1-1.1-1.74a3.84,3.84,0,0,1,6.41-4.22l1.16,1.7,1.66-1.21c1-.76,2.1-1.56,3.15-2.37l1.63-1.26-1.3-1.59a3.83,3.83,0,0,1,5.84-5l1.36,1.54,1.51-1.41c.92-.86,1.88-1.78,2.83-2.72l1.46-1.44-1.48-1.43a3.85,3.85,0,0,1-.15-5.36,3.76,3.76,0,0,1,2.81-1.23,3.87,3.87,0,0,1,2.55,1l1.53,1.36,1.32-1.57c.74-.88,1.53-1.85,2.49-3l1.27-1.6-1.63-1.24A3.83,3.83,0,0,1,255,204a3.77,3.77,0,0,1,2.17.68l1.69,1.15,1.12-1.71c.79-1.22,1.48-2.3,2.11-3.32l1.07-1.74-1.77-1A3.86,3.86,0,0,1,260,192.9a3.81,3.81,0,0,1,3.36-2,3.67,3.67,0,0,1,1.78.44l1.82.95.91-1.84c.61-1.24,1.17-2.41,1.69-3.55l.86-1.87-1.89-.8a3.84,3.84,0,0,1,2.88-7.11l1.92.73.68-1.93c.44-1.24.86-2.5,1.25-3.74l.63-2-2-.57a3.84,3.84,0,0,1,1.06-7.52,3.73,3.73,0,0,1,.94.12l2,.49.14-.64h.56v-6.75ZM191,162.12h62.71c-.29,1-.6,2.07-.93,3.09-5.72,17.79-14.52,28.4-14.61,28.51-3.33,4-7.64,6.14-12.12,6.14-4.84,0-9.33-2.49-12.62-7L191,162.12Zm-143.25,0h63.14L88.43,193.31c-3.29,4.58-7.79,7.1-12.67,7.1-4.44,0-8.73-2.15-12.07-6.06-.09-.1-9-10.64-14.8-28.39-.42-1.27-.81-2.54-1.18-3.84Zm103,77.44c-18.55,0-31.13-5-31.26-5.08-5-2-8.44-5.61-9.72-10.09s-.26-9.35,2.9-13.71L139.17,174c3.15-4.36,7.32-6.76,11.72-6.76s8.52,2.37,11.68,6.68l26.77,36.46c3.19,4.34,4.26,9.2,3,13.69s-4.69,8.09-9.66,10.16c-.13.05-12.9,5.24-31.58,5.3Z" transform="translate(-2 -1.74)" fill="#fff"/></g></svg>