<svg xmlns="http://www.w3.org/2000/svg" viewBox="0 0 534.8 472.02"><title>TeamDeloitte-Logo-White2019</title><g id="60835c3d-2c27-49d0-88a4-ebb6be9a4a7f" data-name="Crank Split"><polygon points="12.92 258.64 12.92 220.6 1 220.6 1 207.81 40.01 207.81 40.01 220.6 28.12 220.6 28.12 258.64 12.92 258.64" fill="#fff"/><path d="M39,208.81V219.6H27.12v38H13.92v-38H2V208.81H39m2-2H0V221.6H11.92v38h17.2v-38H41V206.81Z" fill="#fff"/><polygon points="44.99 258.64 44.99 207.81 75.98 207.81 75.98 220.4 60.18 220.4 60.18 226.08 74.81 226.08 74.81 238.66 60.18 238.66 60.18 245.88 75.98 245.88 75.98 258.64 44.99 258.64" fill="#fff"/><path d="M75,208.81V219.4H59.18v7.68H73.81v10.59H59.18v9.21H75v10.76H46V208.81H75m2-2H44v52.83H77V244.88H61.18v-5.21H75.81V225.08H61.18V221.4H77V206.81Z" fill="#fff"/><path d="M112.72,258.64l-2.41-9.15H96l-2.48,9.15H76.88l16.58-51h19.05l16.79,51Zm-5.67-22-1.77-6.77c-.49-1.75-1.08-4-1.8-6.92-.13-.55-.26-1.08-.38-1.57q-.12.51-.24,1.08c-.56,2.48-1.77,7.24-3.6,14.18Z" fill="#fff"/><path d="M111.79,208.61l16.13,49H113.49l-2.4-9.15H95.22l-2.47,9.15H78.25l15.93-49h17.61M98,237.67h10.39l-2.11-8c-.49-1.78-1.08-4.09-1.78-6.91s-1.17-4.86-1.39-6.08q-.3,1.69-1.19,5.61T98,237.67m15.27-31.06H92.73L92.28,208,76.35,257l-.85,2.62H94.28l.4-1.48,2.07-7.67h12.79l2,7.66.39,1.49h18.73l-.86-2.63-16.13-49-.46-1.37Zm-12.68,29.06c1.11-4.21,2-7.56,2.58-10,.45,1.78.84,3.27,1.18,4.52l1.44,5.49Z" fill="#fff"/><path d="M175.68,258.64V236.23c0-1.12,0-2.37,0-3.73,0-.53.05-1.37.1-2.5l-8,28.64H153.72l-8-28.19c.12,2.33.18,4.33.18,6v22.21H132.2V207.81h19.31l9.57,32.55,9.37-32.55h19.36v50.83Z" fill="#fff"/><path d="M188.81,208.81v48.83H176.68V236.23c0-1.11,0-2.35,0-3.71s.19-4.68.46-10h-.31L167,257.64H154.47l-10-35.17h-.3q.69,9,.7,14v21.21H133.2V208.81h17.57L161,243.48h.27l10-34.67h17.6m2-2H169.7l-.41,1.44-8.22,28.53-8.39-28.54-.42-1.43H131.2v52.83h15.69V238.25l5.66,19.94.41,1.45h15.59l.41-1.46,5.72-20.41v21.87h16.13V206.81Z" fill="#fff"/><path d="M216.1,258.64V207.81H234c8.06,0,14.4,2.11,18.84,6.28s6.71,10.28,6.71,18.1c0,8.39-2.37,15-7,19.55s-11.26,6.9-19.62,6.9Zm17.13-12.82c3.72,0,6.35-1,8-3.12s2.58-5.51,2.58-10c0-4.22-.81-7.36-2.42-9.32s-4-2.88-7.3-2.88h-2.84v25.36Z" fill="#fff"/><path d="M234,208.81q11.76,0,18.15,6t6.4,17.37q0,12.23-6.73,18.84t-18.92,6.61H217.1V208.81H234m-3.71,38h2.94q6,0,8.82-3.49t2.8-10.67q0-6.72-2.65-10t-8.07-3.24h-3.84v27.36m3.71-40H215.1v52.83h17.8c8.63,0,15.47-2.42,20.32-7.19s7.33-11.6,7.33-20.26c0-8.11-2.37-14.45-7-18.83s-11.19-6.55-19.52-6.55Zm-1.71,14.65h1.84c3,0,5.14.82,6.52,2.51s2.2,4.71,2.2,8.69c0,4.29-.79,7.46-2.36,9.41s-3.86,2.75-7.26,2.75h-.94V221.46Z" fill="#fff"/><polygon points="266.3 258.64 266.3 207.81 297.29 207.81 297.29 220.4 281.49 220.4 281.49 226.08 296.12 226.08 296.12 238.66 281.49 238.66 281.49 245.88 297.29 245.88 297.29 258.64 266.3 258.64" fill="#fff"/><path d="M296.29,208.81V219.4h-15.8v7.68h14.63v10.59H280.49v9.21h15.8v10.76h-29V208.81h29m2-2h-33v52.83h33V244.88h-15.8v-5.21h14.63V225.08H282.49V221.4h15.8V206.81Z" fill="#fff"/><polygon points="303.84 258.64 303.84 207.81 319.04 207.81 319.04 245.98 337.84 245.98 337.84 258.64 303.84 258.64" fill="#fff"/><path d="M318,208.81V247h18.8v10.66h-32V208.81H318m2-2h-17.2v52.83h36V245H320V206.81Z" fill="#fff"/><path d="M366.6,259.31c-7.91,0-14.08-2.28-18.35-6.76s-6.4-11-6.4-19.46,2.14-14.85,6.37-19.31S358.67,207,366.67,207s14.21,2.25,18.39,6.69,6.29,11,6.29,19.43-2.13,15-6.32,19.42S374.62,259.31,366.6,259.31Zm.07-39.45c-6,0-8.92,4.35-8.92,13.3s2.89,13.16,8.85,13.16c3,0,5.18-1,6.61-3s2.24-5.52,2.24-10.14-.76-8.09-2.27-10.23A7.35,7.35,0,0,0,366.67,219.86Z" fill="#fff"/><path d="M366.67,208q11.65,0,17.66,6.38t6,18.74q0,12.32-6.05,18.73t-17.7,6.42q-11.49,0-17.62-6.45t-6.13-18.77q0-12.19,6.1-18.62T366.67,208m-.07,39.28q5,0,7.43-3.44t2.42-10.72q0-7.32-2.45-10.81a8.37,8.37,0,0,0-7.33-3.49q-9.93,0-9.92,14.3t9.85,14.16m.07-41.28c-8.29,0-14.74,2.37-19.18,7.05s-6.64,11.38-6.64,20,2.25,15.49,6.68,20.15,10.87,7.07,19.07,7.07,14.75-2.37,19.16-7,6.59-11.41,6.59-20.11-2.21-15.5-6.56-20.11-10.82-7-19.12-7Zm-.07,39.28c-3.37,0-7.85-1.26-7.85-12.16s4.52-12.3,7.92-12.3a6.45,6.45,0,0,1,5.69,2.64c1.39,2,2.09,5.22,2.09,9.66s-.69,7.63-2.06,9.57c-1.22,1.74-3.12,2.59-5.79,2.59Z" fill="#fff"/><rect x="398.16" y="207.81" width="15.26" height="50.83" fill="#fff"/><path d="M412.42,208.81v48.83H399.16V208.81h13.26m2-2H397.16v52.83h17.26V206.81Z" fill="#fff"/><polygon points="430.33 258.64 430.33 220.6 418.4 220.6 418.4 207.81 457.41 207.81 457.41 220.6 445.52 220.6 445.52 258.64 430.33 258.64" fill="#fff"/><path d="M456.41,208.81V219.6H444.52v38H431.33v-38H419.4V208.81h37m2-2h-41V221.6h11.93v38h17.19v-38h11.89V206.81Z" fill="#fff"/><polygon points="470.74 258.64 470.74 220.6 458.82 220.6 458.82 207.81 497.83 207.81 497.83 220.6 485.94 220.6 485.94 258.64 470.74 258.64" fill="#fff"/><path d="M496.83,208.81V219.6H484.94v38h-13.2v-38H459.82V208.81h37m2-2h-41V221.6h11.92v38h17.2v-38h11.89V206.81Z" fill="#fff"/><polygon points="502.81 258.64 502.81 207.81 533.8 207.81 533.8 220.4 518 220.4 518 226.08 532.63 226.08 532.63 238.66 518 238.66 518 245.88 533.8 245.88 533.8 258.64 502.81 258.64" fill="#fff"/><path d="M532.8,208.81V219.4H517v7.68h14.63v10.59H517v9.21h15.8v10.76h-29V208.81h29m2-2h-33v52.83h33V244.88H519v-5.21h14.63V225.08H519V221.4h15.8V206.81Z" fill="#fff"/><path d="M110.85,180.73h46.87c-8.85-7-11-19-4.28-30,0,0,9.67-15.8,30.25-30.86s38.56-19.51,38.56-19.51c15.9-3.93,28.94,6.26,29,22.64l.12,57.72h34.18l-.29-57.86C285.14,106.48,298.11,96.2,314,100c0,0,18,4.31,38.7,19.23S383.2,149.9,383.2,149.9c7.09,11.39,4.57,23.88-5.14,30.83h47.69a10.59,10.59,0,0,1,7-9.88q-1.22-3-2.53-6A10.61,10.61,0,0,1,420.56,146q-1.67-2.8-3.43-5.57a10.61,10.61,0,0,1-12.53-17.11c-1.38-1.67-2.81-3.31-4.27-4.94a10.61,10.61,0,0,1-15.06-14.93c-1.63-1.43-3.3-2.84-5-4.22a10.61,10.61,0,0,1-17.2-12.4c-1.84-1.17-3.71-2.31-5.58-3.4a10.61,10.61,0,0,1-18.92-9.58c-2-.87-4-1.71-6-2.49a10.61,10.61,0,0,1-20.19-6.49c-2.11-.54-4.24-1-6.36-1.49a10.61,10.61,0,0,1-21-3.23c-2.17-.2-4.35-.37-6.52-.49a10.6,10.6,0,0,1-21.2.09c-2.18.14-4.35.33-6.51.55a10.61,10.61,0,0,1-20.93,3.39c-2.13.48-4.25,1-6.35,1.54a10.61,10.61,0,0,1-20.15,6.6c-2,.8-4,1.65-6,2.53A10.61,10.61,0,0,1,178.47,84c-1.87,1.11-3.73,2.24-5.57,3.42a10.61,10.61,0,0,1-17.11,12.53c-1.67,1.39-3.31,2.82-4.94,4.28a10.61,10.61,0,0,1-14.93,15.06c-1.43,1.63-2.83,3.3-4.21,5a10.61,10.61,0,0,1-12.4,17.2c-1.18,1.84-2.31,3.7-3.41,5.58A10.6,10.6,0,0,1,106.32,166c-.86,2-1.7,4-2.49,6A10.6,10.6,0,0,1,110.85,180.73Z" fill="#86bc25" stroke="#fff" stroke-miterlimit="10" stroke-width="2"/><path d="M426.64,286.76a11.1,11.1,0,0,1,.79-1.83H403.85c-7.71,21.2-18,33.43-18,33.43-10.56,12.53-27.09,11.95-36.75-1.29l-23.45-32.14H282.72a28,28,0,0,1,3.68,4.13l35.27,48c9.7,13.2,5.25,29.14-9.88,35.42,0,0-17.11,7.1-42.61,7.19s-42.66-6.89-42.66-6.89c-15.18-6.17-19.74-22.07-10.14-35.35l34.93-48.28a28.43,28.43,0,0,1,3.76-4.25h-42.8l-23.53,32.74c-9.56,13.3-26.09,14-36.74,1.54,0,0-10.71-12.53-18.61-34.28H109.27a10.59,10.59,0,0,1-5,16.25c.8,2,1.65,4,2.52,6a10.61,10.61,0,0,1,9.69,18.87c1.1,1.87,2.24,3.73,3.42,5.56a10.61,10.61,0,0,1,12.53,17.11c1.39,1.68,2.82,3.32,4.27,4.95a10.61,10.61,0,0,1,15.07,14.92c1.63,1.44,3.29,2.84,5,4.22A10.6,10.6,0,0,1,174,385.24q2.77,1.75,5.58,3.41a10.61,10.61,0,0,1,18.92,9.57c2,.87,4,1.71,6,2.5a10.61,10.61,0,0,1,20.19,6.48c2.11.55,4.24,1,6.37,1.49A10.6,10.6,0,0,1,252,411.92c2.17.2,4.35.38,6.52.5a10.61,10.61,0,0,1,21.21-.1c2.17-.14,4.34-.33,6.51-.55a10.61,10.61,0,0,1,20.93-3.39q3.18-.7,6.35-1.53a10.6,10.6,0,0,1,20.14-6.61c2-.8,4-1.65,6-2.53A10.61,10.61,0,0,1,358.6,388q2.81-1.67,5.57-3.43a10.61,10.61,0,0,1,17.11-12.53c1.67-1.39,3.31-2.82,4.94-4.27a10.61,10.61,0,0,1,14.93-15.06c1.43-1.64,2.83-3.3,4.22-5a10.6,10.6,0,0,1,12.4-17.19q1.75-2.78,3.4-5.58a10.61,10.61,0,0,1,9.58-18.92c.87-2,1.7-4,2.49-6A10.61,10.61,0,0,1,426.64,286.76Z" fill="#86bc25" stroke="#fff" stroke-miterlimit="10" stroke-width="2"/><path d="M50.75,184.13v-2.5h-.9l.9-1.47v-3H52a9.66,9.66,0,0,0-6.74-11.22l-1-.28.31-1c.73-2.3,1.49-4.56,2.25-6.72l.35-1,1,.37a9.61,9.61,0,0,0,7.2-17.81l-.94-.4.43-.93c.94-2.07,1.94-4.16,3.05-6.39l.46-.92.9.48a9.61,9.61,0,0,0,9.3-16.81l-.89-.52.54-.87c1.13-1.85,2.38-3.8,3.8-6l.57-.86.84.58a9.61,9.61,0,0,0,13.23-2.29,9.66,9.66,0,0,0-2-13.28l-.81-.62.63-.8c1.6-2,3.06-3.81,4.47-5.49l.66-.79.77.68a9.6,9.6,0,0,0,13-14.1l-.73-.72.72-.72c1.78-1.76,3.45-3.36,5.11-4.91l.75-.7.68.77a9.6,9.6,0,0,0,14.64-12.43l-.65-.8.81-.63c1.8-1.39,3.7-2.82,5.67-4.25l.83-.61.58.85a9.61,9.61,0,0,0,16-10.57l-.55-.87.88-.52c2-1.18,4-2.37,6.14-3.54l.9-.49.47.91a9.61,9.61,0,0,0,17.2-8.56l-.43-.93.93-.41c2.07-.92,4.27-1.85,6.52-2.76l.95-.39.37,1a9.6,9.6,0,0,0,18.1-6.42l-.32-1,1-.3c2.18-.66,4.47-1.32,6.8-2l1-.27.25,1a9.57,9.57,0,0,0,9.31,7.3,10,10,0,0,0,2.11-.23,9.68,9.68,0,0,0,7.32-11.26l-.2-1,1-.18c2.35-.42,4.71-.8,7-1.13l1-.15.12,1a9.62,9.62,0,0,0,9.52,8.42,7.88,7.88,0,0,0,1,0,9.66,9.66,0,0,0,8.62-10.3l-.07-1,1,0c2.34-.13,4.72-.23,7.08-.29l1,0v1a9.66,9.66,0,0,0,9.41,9.59h.21A9.6,9.6,0,0,0,283,2.44l0-1,1,.07c2.35.15,4.73.34,7.06.57l1,.09-.13,1a9.66,9.66,0,0,0,8.18,10.68,8.93,8.93,0,0,0,1.37.1,9.57,9.57,0,0,0,9.47-8.08l.17-1,1,.19c2.29.43,4.63.91,6.94,1.41l1,.22-.24,1a9.6,9.6,0,0,0,18.55,5l.29-1,1,.31c2.23.71,4.49,1.46,6.71,2.25l1,.34-.36,1a9.64,9.64,0,0,0,5.38,12.34,9.4,9.4,0,0,0,3.58.7,9.6,9.6,0,0,0,8.85-5.85l.4-.94.93.43c2.09.95,4.24,2,6.4,3.05l.91.45-.47.91a9.6,9.6,0,0,0,16.81,9.28l.52-.88.87.53c1.84,1.13,3.8,2.37,6,3.8l.85.56-.58.84A9.67,9.67,0,0,0,399.8,54a9.61,9.61,0,0,0,13.28-2l.62-.82.8.64c2.23,1.76,4.05,3.25,5.74,4.67l.79.67-.68.76A9.67,9.67,0,0,0,421,71.34,9.61,9.61,0,0,0,434.45,71l.71-.74.72.73c1.76,1.78,3.36,3.45,4.91,5.11l.7.75-.78.68a9.61,9.61,0,0,0,12.43,14.65l.8-.65.63.81c1.46,1.89,2.89,3.8,4.24,5.67l.61.83-.85.58a9.61,9.61,0,0,0,10.56,16.05l.87-.55.53.88c1.21,2,2.39,4.1,3.52,6.14l.5.9-.91.47a9.68,9.68,0,0,0-4.17,12.81,9.62,9.62,0,0,0,12.71,4.4l.93-.43.42.93c1,2.18,1.88,4.38,2.75,6.52l.39.95-1,.37a9.6,9.6,0,0,0,3.4,18.59,9.29,9.29,0,0,0,3-.49l1-.31.29,1c.67,2.21,1.33,4.5,2,6.81l.27,1-1,.25a9.55,9.55,0,0,0-6.37,5.23v3.28Zm318-7,40.39-13.21c10.09-3.3,17.4-9.93,20.58-18.67s1.84-18.51-3.77-27.53c-.13-.22-13.74-21.79-41.77-42s-52.8-26.31-53-26.37a37.83,37.83,0,0,0-8.78-1.07,29.2,29.2,0,0,0-20.95,8.36c-5.72,5.75-8.84,14-8.8,23.26l.42,82.22a33.81,33.81,0,0,0,3.34,15Zm-128,0a34,34,0,0,0,3.12-14.81l-.17-82.22c0-18.49-12.26-31.41-29.72-31.41a37.79,37.79,0,0,0-9,1.14c-.25.06-25,6.34-52.85,26.75s-41.34,42.08-41.48,42.29c-5.54,9.06-6.81,18.85-3.56,27.56s10.59,15.29,20.71,18.52l38.13,12.18Z" fill="#fff"/><path d="M262.81,2.05A10.61,10.61,0,0,0,273.2,12.64h.23A10.61,10.61,0,0,0,284,2.48c2.34.15,4.69.34,7,.56a10.6,10.6,0,0,0,9,11.79,11.07,11.07,0,0,0,1.51.11A10.62,10.62,0,0,0,312.05,6c2.3.44,4.61.91,6.91,1.41a10.6,10.6,0,0,0,7.54,12.81,10.48,10.48,0,0,0,2.76.37,10.6,10.6,0,0,0,10.18-7.68q3.36,1.07,6.69,2.24a10.61,10.61,0,0,0,19.67,7.94c2.13,1,4.25,2,6.36,3A10.61,10.61,0,0,0,390.73,36.4c2,1.23,4,2.5,5.95,3.79a10.6,10.6,0,0,0,17.2,12.4q2.89,2.29,5.72,4.66a10.61,10.61,0,0,0,15.57,14.4c1.65,1.68,3.29,3.37,4.88,5.09a10.61,10.61,0,0,0,13.73,16.17q2.16,2.79,4.22,5.64a10.61,10.61,0,0,0,11.67,17.72c1.2,2,2.37,4.06,3.51,6.12a10.61,10.61,0,0,0,9.43,19c.95,2.15,1.86,4.31,2.75,6.49a10.61,10.61,0,0,0,7.07,20q1,3.36,1.95,6.77a10.59,10.59,0,0,0-7.13,6v2.5H51.75v-2.5h-.11c0-.07.07-.15.11-.23v-2.27h1c0-.08.06-.15.08-.23a10.61,10.61,0,0,0-7.31-13c.72-2.24,1.46-4.47,2.25-6.69a10.61,10.61,0,0,0,8-19.66q1.47-3.19,3-6.36A10.61,10.61,0,0,0,69,113.68c1.23-2,2.5-4,3.79-5.94a10.61,10.61,0,0,0,12.42-17.2q2.19-2.78,4.45-5.47a10.61,10.61,0,0,0,14.39-15.58q2.5-2.47,5.08-4.88A10.61,10.61,0,0,0,125.3,50.87c1.86-1.44,3.75-2.85,5.64-4.23A10.61,10.61,0,0,0,148.65,35q3-1.8,6.12-3.51a10.61,10.61,0,0,0,19-9.45c2.15-.95,4.32-1.86,6.49-2.75a10.62,10.62,0,0,0,9.92,6.86,10.5,10.5,0,0,0,3.55-.62,10.6,10.6,0,0,0,6.52-13.32q3.38-1,6.77-2a10.62,10.62,0,0,0,10.29,8.06,10.34,10.34,0,0,0,2.33-.26,10.6,10.6,0,0,0,8.08-12.43c2.31-.41,4.64-.78,7-1.12a10.61,10.61,0,0,0,10.51,9.3c.36,0,.71,0,1.07,0a10.61,10.61,0,0,0,9.52-11.37c2.35-.13,4.69-.23,7-.29M295.7,178.13h73.16l40.54-13.26c21.48-7,29.29-28.49,17.35-47.68,0,0-13.49-21.71-42-42.29s-53.4-26.53-53.4-26.53a38.78,38.78,0,0,0-9-1.1c-17.65,0-30.85,13.21-30.75,32.62l.42,82.23a34.77,34.77,0,0,0,3.72,16m-130,0h75.63a34.86,34.86,0,0,0,3.49-15.81l-.17-82.22c0-19.33-13.19-32.41-30.72-32.4a38.37,38.37,0,0,0-9.26,1.16S179.86,55,151.47,75.77s-41.74,42.58-41.74,42.58c-11.8,19.28-3.84,40.68,17.69,47.56l38.28,12.22M264.81,0l-2.05.05c-2.36.06-4.75.16-7.1.29l-2,.11.16,2a8.68,8.68,0,0,1-7.73,9.23,8.31,8.31,0,0,1-.87,0,8.6,8.6,0,0,1-8.52-7.55l-.25-2-2,.3c-2.29.33-4.65.71-7,1.13l-2,.36.4,2A8.61,8.61,0,0,1,209,9.73l-.5-2-2,.54c-2.34.64-4.64,1.3-6.83,2l-2,.6.64,2a8.6,8.6,0,0,1-16.22,5.74l-.73-1.91-1.89.77c-2.26.92-4.46,1.85-6.55,2.77l-1.88.83.88,1.86A8.65,8.65,0,0,1,168,34.25a8.49,8.49,0,0,1-3.83.9,8.59,8.59,0,0,1-7.64-4.63l-.95-1.82-1.79,1c-2.14,1.18-4.21,2.38-6.17,3.55l-1.77,1L147,36a8.63,8.63,0,0,1-2.53,11.79,8.54,8.54,0,0,1-4.72,1.42,8.64,8.64,0,0,1-7.12-3.74l-1.16-1.7L129.77,45c-2,1.43-3.88,2.87-5.69,4.27l-1.63,1.26,1.31,1.59a8.61,8.61,0,0,1-13.12,11.14l-1.36-1.54-1.5,1.4c-1.66,1.54-3.33,3.16-5.13,4.93l-1.46,1.45,1.48,1.42A8.61,8.61,0,0,1,91,83.58l-1.53-1.37-1.32,1.58c-1.43,1.69-2.9,3.5-4.49,5.51l-1.27,1.6L84,92.14a8.61,8.61,0,0,1-10.08,14l-1.68-1.16-1.12,1.71c-1.42,2.16-2.67,4.12-3.82,6l-1.08,1.75,1.78,1a8.61,8.61,0,0,1-4.33,16.05,8.46,8.46,0,0,1-4-1l-1.82-.95L57,131.35c-1.11,2.25-2.12,4.35-3.06,6.42L53,139.64l1.89.8A8.61,8.61,0,0,1,51.54,157a8.58,8.58,0,0,1-3.08-.57l-1.91-.74-.69,1.94c-.77,2.17-1.53,4.44-2.26,6.74l-.63,2,2,.57a8.65,8.65,0,0,1,6.16,9.26H49.75v3.75l-1.66,2.75h1.66v2.5h439.5v-4a8.54,8.54,0,0,1,5.61-4.49l2-.49-.53-2c-.64-2.32-1.3-4.62-2-6.83l-.6-1.95-1.94.64a8.8,8.8,0,0,1-2.69.43,8.61,8.61,0,0,1-3.05-16.66L488,149l-.77-1.9c-.88-2.18-1.82-4.39-2.77-6.55l-.83-1.88-1.85.88a8.63,8.63,0,0,1-11.39-4,8.65,8.65,0,0,1,3.73-11.47l1.82-1-1-1.79c-1.14-2.06-2.33-4.13-3.54-6.17l-1.05-1.77-1.74,1.1A8.59,8.59,0,0,1,456.81,112a8.65,8.65,0,0,1,2.32-11.84l1.7-1.16-1.21-1.66c-1.36-1.88-2.79-3.79-4.26-5.69l-1.26-1.63-1.59,1.3a8.66,8.66,0,0,1-5.45,2,8.61,8.61,0,0,1-5.68-15.07l1.54-1.36-1.4-1.51c-1.55-1.66-3.17-3.34-4.93-5.12l-1.44-1.46-1.42,1.47a8.61,8.61,0,0,1-12.05.35,8.66,8.66,0,0,1-.58-12L422.46,57l-1.57-1.32c-1.69-1.43-3.53-2.92-5.77-4.7l-1.6-1.27-1.24,1.63a8.61,8.61,0,0,1-11.9,1.8,8.66,8.66,0,0,1-2.05-11.86l1.15-1.68-1.7-1.12c-2.2-1.44-4.16-2.69-6-3.82L390,33.63l-1,1.77a8.61,8.61,0,0,1-15.07-8.32l.95-1.81-1.83-.91c-2.17-1.08-4.33-2.11-6.42-3.06l-1.87-.86-.8,1.89a8.61,8.61,0,0,1-16-6.45l.73-1.92-1.94-.68c-2.23-.78-4.5-1.54-6.74-2.26l-2-.62-.57,2a8.64,8.64,0,0,1-8.26,6.23,8.46,8.46,0,0,1-2.24-.3,8.64,8.64,0,0,1-6.12-10.4l.49-2-2-.44c-2.33-.51-4.67-1-7-1.42l-2-.38-.33,2a8.55,8.55,0,0,1-8.48,7.24,8.48,8.48,0,0,1-1.23-.09A8.66,8.66,0,0,1,293,3.28l.25-2-2-.2c-2.34-.22-4.73-.41-7.09-.57l-2-.13-.08,2a8.59,8.59,0,0,1-8.59,8.26h-.19a8.66,8.66,0,0,1-8.43-8.59V0Zm32.13,176.13a33,33,0,0,1-3-14l-.42-82.22c0-9,3-17,8.51-22.55a28.2,28.2,0,0,1,20.24-8.06,36.78,36.78,0,0,1,8.54,1c.25.06,24.85,6.13,52.7,26.22s41.37,41.5,41.5,41.72c5.45,8.75,6.75,18.22,3.68,26.66s-10.16,14.85-20,18.06l-40.23,13.16Zm-130.93,0L128,164c-9.81-3.14-16.94-9.5-20.08-17.92s-1.89-17.9,3.49-26.68c.13-.22,13.5-21.74,41.21-42s52.26-26.52,52.5-26.58a36.85,36.85,0,0,1,8.78-1.1c16.87,0,28.68,12.5,28.72,30.4l.17,82.22a33.39,33.39,0,0,1-2.75,13.81Z" fill="#fff"/><path d="M273.26,470a9.67,9.67,0,0,0-9.41-9.6h-.2a9.58,9.58,0,0,0-9.6,9.21l0,1-1-.06c-2.45-.16-4.82-.36-7.06-.57l-1-.1.12-1a9.66,9.66,0,0,0-8.18-10.68,10.39,10.39,0,0,0-1.37-.09,9.56,9.56,0,0,0-9.47,8.07l-.16,1-1-.19c-2.39-.45-4.73-.93-6.94-1.42l-1-.22.25-1a9.6,9.6,0,0,0-18.55-5l-.29,1-1-.31c-2.21-.7-4.47-1.46-6.72-2.25l-1-.34.36-1a9.61,9.61,0,0,0-17.81-7.2l-.4.95-.93-.43c-2.07-.95-4.22-2-6.4-3.05l-.91-.46.47-.9a9.65,9.65,0,0,0-3.86-12.88,9.54,9.54,0,0,0-4.63-1.2,9.65,9.65,0,0,0-8.32,4.79l-.52.89-.87-.54c-1.82-1.11-3.78-2.36-6-3.8l-.86-.56.58-.84A9.61,9.61,0,0,0,124,420l-.61.81-.8-.63c-2.17-1.72-4-3.25-5.75-4.68l-.79-.66.68-.77a9.6,9.6,0,0,0-7.18-16,9.53,9.53,0,0,0-6.92,2.94l-.71.73-.72-.72c-1.72-1.75-3.37-3.47-4.9-5.11l-.71-.75.78-.68a9.61,9.61,0,0,0-12.43-14.65l-.8.65-.63-.81c-1.46-1.89-2.89-3.8-4.25-5.67l-.6-.83.85-.58a9.61,9.61,0,0,0-5.43-17.54,9.52,9.52,0,0,0-5.13,1.49l-.87.55-.53-.89c-1.22-2.05-2.4-4.12-3.52-6.14l-.5-.9.91-.47A9.66,9.66,0,0,0,67.6,336,9.57,9.57,0,0,0,59,330.62a9.45,9.45,0,0,0-4.1.93L54,332l-.41-.94c-1-2.16-1.88-4.35-2.76-6.52l-.39-.95,1-.36A9.61,9.61,0,0,0,45,305.1l-1,.32-.29-1c-.68-2.24-1.34-4.53-2-6.8l-.27-1,1-.25a9.56,9.56,0,0,0,7.29-9.18h0l-.07-1v-.57l-.1-.61-.26-1.21h.36v-3.61H498.46v7H498l-.13.59-1-.25a9.61,9.61,0,0,0-5,18.56l1,.28-.32,1c-.71,2.24-1.47,4.5-2.25,6.71l-.34,1-1-.36a9.45,9.45,0,0,0-3.44-.64,9.6,9.6,0,0,0-3.77,18.44l.94.41-.42.93c-.95,2.07-1.95,4.16-3.06,6.39l-.45.92-.91-.48a9.61,9.61,0,0,0-9.3,16.81l.89.52-.54.87c-1.11,1.8-2.35,3.76-3.8,6l-.56.85-.84-.57a9.61,9.61,0,0,0-11.25,15.57l.82.62-.64.8c-1.72,2.16-3.14,3.91-4.47,5.48l-.66.79-.77-.68a9.6,9.6,0,0,0-13,14.11l.73.71-.72.72c-1.72,1.7-3.43,3.35-5.1,4.91l-.76.7-.68-.77a9.61,9.61,0,0,0-14.64,12.44l.65.8-.81.63c-1.88,1.45-3.78,2.88-5.67,4.25l-.83.6-.58-.85a9.61,9.61,0,0,0-16,10.58l.55.87-.88.52c-2,1.21-4.1,2.4-6.14,3.53l-.9.5-.47-.91a9.61,9.61,0,0,0-17.2,8.55l.44.93-.94.42c-2.08.92-4.28,1.85-6.52,2.76l-.95.38-.37-.95a9.6,9.6,0,0,0-18.1,6.41l.32,1-1,.29c-2.23.68-4.52,1.34-6.8,2l-1,.27-.25-1a9.59,9.59,0,0,0-9.31-7.3,9.35,9.35,0,0,0-2.11.24,9.55,9.55,0,0,0-7.32,11.26l.2,1-1,.18c-2.34.41-4.69.79-7,1.13l-1,.14-.13-1a9.62,9.62,0,0,0-9.52-8.43c-.32,0-.65,0-1,.05a9.67,9.67,0,0,0-8.62,10.31l.08,1-1,.06c-2.4.13-4.79.23-7.08.28l-1,0ZM269,296.59c-8.88,0-17.2,4.75-23.44,13.37l-48.19,66.62c-6.23,8.6-8.24,18.26-5.68,27.2s9.39,16.06,19.23,20.06c.23.1,23.61,9.43,57.8,9.43h.68c34.56-.12,58.18-9.75,58.41-9.85,9.81-4.06,16.59-11.24,19.09-20.19s.41-18.6-5.87-27.16L292.38,309.8C286.12,301.28,277.83,296.59,269,296.59ZM78,287.22c1,3.61,2,7,3.09,10.44,10.8,32.85,27.24,52.31,27.41,52.51,6.58,7.69,15.08,11.93,23.95,11.93,9.6,0,18.77-5.1,25.17-14l43.76-60.88Zm302.49,60c6.51,8.92,15.41,13.82,25.08,13.82,8.93,0,17.48-4.29,24.05-12.1.17-.19,16.48-19.8,27.05-52.71.95-3,1.82-5.94,2.65-9.06H336.68Z" fill="#fff"/><path d="M497.46,281.22v5h-.3c0,.12-.05.25-.08.37a10.83,10.83,0,0,0-2.57-.32,10.61,10.61,0,0,0-2.94,20.81q-1.06,3.35-2.24,6.68a10.61,10.61,0,0,0-8,19.66c-1,2.14-2,4.25-3,6.37a10.6,10.6,0,0,0-10.27,18.55c-1.23,2-2.5,4-3.79,6a10.61,10.61,0,0,0-12.41,17.2c-1.47,1.84-2.95,3.67-4.46,5.46A10.61,10.61,0,0,0,433,402.53q-2.5,2.49-5.08,4.89a10.6,10.6,0,0,0-16.16,13.73c-1.87,1.45-3.74,2.86-5.64,4.24a10.61,10.61,0,0,0-17.71,11.67q-3,1.81-6.12,3.52a10.61,10.61,0,0,0-19,9.44q-3.22,1.43-6.49,2.75a10.62,10.62,0,0,0-9.92-6.85,10.48,10.48,0,0,0-3.55.61,10.62,10.62,0,0,0-6.52,13.33q-3.37,1-6.78,1.95a10.61,10.61,0,0,0-10.28-8.06,11,11,0,0,0-2.33.26,10.62,10.62,0,0,0-8.08,12.43q-3.47.62-7,1.13a10.61,10.61,0,0,0-10.51-9.31c-.35,0-.71,0-1.07.05a10.62,10.62,0,0,0-9.52,11.38c-2.35.13-4.69.23-7,.28a10.61,10.61,0,0,0-10.39-10.59h-.22a10.61,10.61,0,0,0-10.6,10.17c-2.34-.16-4.69-.34-7-.57a10.61,10.61,0,0,0-9-11.79,11.07,11.07,0,0,0-1.51-.11A10.62,10.62,0,0,0,225,466c-2.3-.44-4.61-.91-6.91-1.41a10.61,10.61,0,0,0-7.54-12.82,10.46,10.46,0,0,0-2.76-.36,10.6,10.6,0,0,0-10.18,7.67c-2.24-.71-4.47-1.45-6.69-2.24A10.59,10.59,0,0,0,185,443.23a10.46,10.46,0,0,0-4-.78,10.63,10.63,0,0,0-9.77,6.46q-3.2-1.47-6.36-3a10.61,10.61,0,0,0-18.57-10.25c-2-1.22-4-2.49-6-3.78a10.6,10.6,0,0,0-17.19-12.41c-1.94-1.53-3.86-3.07-5.73-4.65a10.61,10.61,0,0,0-15.57-14.41c-1.65-1.67-3.29-3.37-4.88-5.08A10.61,10.61,0,0,0,83.3,379.11q-2.17-2.79-4.24-5.64A10.61,10.61,0,0,0,67.4,355.75q-1.8-3-3.51-6.11a10.61,10.61,0,0,0-9.43-19c-1-2.15-1.86-4.32-2.75-6.5a10.6,10.6,0,0,0-7.07-20q-1-3.37-1.94-6.78a10.59,10.59,0,0,0,8-11.15h-.07v-.64c0-.25-.07-.5-.13-.75h.13v-3.61H497.46m-91.89,80.87c8.86,0,17.8-4.13,24.82-12.45,0,0,16.47-19.55,27.23-53.05,1.14-3.56,2.13-7,3-10.37H334.71l45,61.64c6.9,9.46,16.35,14.23,25.88,14.23m-273.12,1c9.6,0,19.1-4.84,26-14.42l44.9-62.46H76.7c1,3.78,2.11,7.7,3.44,11.75,11,33.42,27.6,52.85,27.6,52.85,7,8.21,15.91,12.28,24.71,12.28m136.29,71.17h.68c35.19-.13,58.79-9.92,58.79-9.92,20.88-8.66,27-30.65,13.64-48.87L293.18,309.2c-6.66-9.07-15.42-13.61-24.16-13.61s-17.6,4.6-24.25,13.79L196.57,376c-13.24,18.32-6.95,40.27,14,48.78,0,0,23.37,9.5,58.18,9.5m230.72-155H48.64v3.61H48l.53,2.42c0,.16,0,.31.08.47v2.5h0a8.54,8.54,0,0,1-6.45,7.21l-2,.49.54,2c.62,2.28,1.28,4.58,2,6.83l.6,2,1.94-.64A8.6,8.6,0,0,1,51,322.27l-1.92.72.77,1.9c.88,2.18,1.81,4.38,2.77,6.56l.83,1.88,1.86-.88A8.59,8.59,0,0,1,66.7,336.4,8.64,8.64,0,0,1,63,347.86l-1.82.95,1,1.8c1.13,2,2.32,4.11,3.55,6.17l1,1.77,1.73-1.11a8.61,8.61,0,0,1,9.47,14.38L76.24,373l1.21,1.67c1.36,1.87,2.79,3.79,4.26,5.69L83,382l1.59-1.3A8.61,8.61,0,0,1,95.7,393.79l-1.55,1.36,1.4,1.5c1.55,1.66,3.16,3.34,4.93,5.13l1.44,1.46,1.42-1.48a8.62,8.62,0,0,1,12-.34,8.66,8.66,0,0,1,.59,12L114.61,415l1.57,1.33c1.71,1.44,3.55,2.93,5.77,4.69l1.61,1.27,1.23-1.63a8.6,8.6,0,0,1,14,10.07l-1.15,1.68,1.71,1.12c2.2,1.44,4.16,2.69,6,3.82L147,438.4l1-1.77a8.61,8.61,0,0,1,15.07,8.31l-.95,1.82,1.83.91c2.19,1.08,4.35,2.11,6.42,3.06l1.87.86.8-1.89a8.61,8.61,0,0,1,7.93-5.25,8.46,8.46,0,0,1,3.21.63,8.65,8.65,0,0,1,4.82,11.06l-.73,1.92,1.94.68c2.27.8,4.54,1.56,6.74,2.26l2,.62.57-2a8.64,8.64,0,0,1,8.26-6.23,9,9,0,0,1,2.25.29,8.65,8.65,0,0,1,6.11,10.4l-.49,2,2,.44c2.23.49,4.57,1,7,1.42l2,.38.33-2a8.58,8.58,0,0,1,9.71-7.15,8.67,8.67,0,0,1,7.33,9.57l-.25,2,2,.19c2.26.22,4.65.41,7.09.57l2,.14.09-2.05a8.58,8.58,0,0,1,8.6-8.25h.18a8.66,8.66,0,0,1,8.43,8.6v2l2,0c2.3-.05,4.69-.15,7.11-.28l2-.11-.15-2A8.66,8.66,0,0,1,291,460.3c.29,0,.58,0,.87,0a8.62,8.62,0,0,1,8.53,7.55l.25,2,2-.29c2.31-.34,4.68-.72,7-1.14l2-.36-.4-2a8.61,8.61,0,0,1,16.79-3.76l.5,2,2-.53c2.3-.63,4.6-1.29,6.83-2l2-.6-.64-1.94A8.65,8.65,0,0,1,344,448.42a8.35,8.35,0,0,1,2.88-.5,8.65,8.65,0,0,1,8.05,5.56l.73,1.91,1.89-.77c2.25-.91,4.45-1.84,6.55-2.77L366,451l-.88-1.85a8.67,8.67,0,0,1,3.94-11.4,8.49,8.49,0,0,1,3.83-.9,8.6,8.6,0,0,1,7.64,4.63l1,1.82,1.79-1c2.07-1.15,4.14-2.34,6.17-3.55l1.77-1-1.1-1.74a8.65,8.65,0,0,1,2.53-11.8,8.61,8.61,0,0,1,11.84,2.33l1.16,1.7L407.3,427c1.88-1.37,3.8-2.81,5.69-4.27l1.63-1.26-1.3-1.59a8.61,8.61,0,0,1,13.11-11.15l1.36,1.54,1.51-1.4c1.67-1.56,3.4-3.22,5.12-4.93l1.46-1.44-1.48-1.42a8.65,8.65,0,0,1-.35-12,8.48,8.48,0,0,1,6.32-2.77,8.61,8.61,0,0,1,5.71,2.17l1.53,1.35,1.32-1.56c1.34-1.59,2.77-3.34,4.49-5.51l1.27-1.6-1.62-1.24a8.6,8.6,0,0,1,10.07-13.95l1.69,1.16,1.12-1.71c1.44-2.21,2.69-4.17,3.81-6l1.08-1.74-1.78-1a8.61,8.61,0,0,1,4.33-16.06,8.51,8.51,0,0,1,4,1l1.81.95.91-1.84c1.12-2.25,2.12-4.35,3.06-6.41l.86-1.87-1.89-.8a8.66,8.66,0,0,1-4.6-11.15,8.61,8.61,0,0,1,11.06-4.81l1.92.73.68-1.93c.79-2.24,1.55-4.5,2.27-6.75l.62-1.95-2-.57a8.61,8.61,0,0,1,4.48-16.63l2,.5.18-.81h.69v-9Zm-160.82,9H458c-.73,2.65-1.49,5.21-2.31,7.76-10.51,32.75-26.69,52.17-26.85,52.37-6.38,7.57-14.66,11.74-23.29,11.74-9.34,0-18-4.76-24.27-13.41l-42.66-58.46Zm-259.34,0H199.43l-42.62,59.3c-6.21,8.63-15.09,13.58-24.36,13.58-8.57,0-16.81-4.11-23.19-11.58-.17-.2-16.5-19.56-27.22-52.18-1-3-1.89-6-2.74-9.12Zm189.44,144c-34,0-57.2-9.26-57.43-9.35-9.54-3.88-16.16-10.78-18.64-19.41s-.51-18,5.53-26.34l48.19-66.62c6.05-8.36,14.08-13,22.63-13s16.49,4.54,22.55,12.8l48.67,66.27c6.1,8.31,8.13,17.65,5.71,26.3s-9,15.59-18.5,19.54c-.23.1-23.7,9.65-58,9.77Z" fill="#fff"/><path d="M497.27,282.63" fill="none" stroke="#000" stroke-miterlimit="10" stroke-width="5"/><path d="M50.64,287.63" fill="none" stroke="#000" stroke-miterlimit="10" stroke-width="5"/></g></svg>