<svg xmlns="http://www.w3.org/2000/svg" viewBox="0 0 530.8 614.98"><title>Team-Deloitte-Logo-White</title><g id="b7af9fd8-cf5d-4417-bb3c-b327cb8c712d" data-name="No Arm Words"><path d="M36.34,498.08l-4-5.49,11.2-8.17-7.49-10.28-11.2,8.18-4-5.51,26-18.93,4,5.5L40.63,470.8l7.49,10.28,10.17-7.42,4,5.48Z" transform="translate(-1.7)" fill="#fff"/><path d="M76.42,517.94q-5.76,5.52-11.58,5.63T53.9,518.35Q48.79,513,49.14,507.2t6.15-11.37q5.79-5.55,11.59-5.61T77.8,495.5q5.13,5.34,4.76,11.13T76.42,517.94ZM60.2,501q-3.89,3.74-4.44,7.09A7.17,7.17,0,0,0,58,514.4q5.64,5.88,13.46-1.61t2.23-13.37a7.19,7.19,0,0,0-6.22-2.53Q64.09,497.3,60.2,501Z" transform="translate(-1.7)" fill="#fff"/><path d="M113.88,527.9l-12.95,16.26a12,12,0,0,1-5.13,3.89,10.33,10.33,0,0,1-6.17.34,16.42,16.42,0,0,1-6.45-3.31c-3.23-2.58-5.09-5.4-5.55-8.48a11.28,11.28,0,0,1,2.73-8.94l12.89-16.19,5.31,4.23L86.31,531.09Q84,534,84.09,536.28c.06,1.53,1,3,2.78,4.44s3.37,1.94,4.88,1.65,3-1.4,4.59-3.35l12.23-15.35Z" transform="translate(-1.7)" fill="#fff"/><path d="M124.77,562.32a8.31,8.31,0,0,1-6.29,4.15q-4,.46-8.72-2.49a20.64,20.64,0,0,1-6.69-6.46l3.36-5.37A37.11,37.11,0,0,0,110,556.8a16.43,16.43,0,0,0,3.18,2.69,5.8,5.8,0,0,0,3.37,1.09,2.94,2.94,0,0,0,2.37-1.52,2.84,2.84,0,0,0,.44-1.71,5.89,5.89,0,0,0-.56-2,39.32,39.32,0,0,0-2.38-4.05,20,20,0,0,1-2.33-4.6,9.63,9.63,0,0,1-.42-3.76A8.44,8.44,0,0,1,115,539.1a8.28,8.28,0,0,1,6-4.15q3.73-.54,8.06,2.17a18.36,18.36,0,0,1,3.74,3,32,32,0,0,1,3.15,3.94l-4.67,3.33a32.14,32.14,0,0,0-2.82-3.51,13.71,13.71,0,0,0-2.59-2.1,4.31,4.31,0,0,0-3-.81,3,3,0,0,0-2.12,1.44,2.9,2.9,0,0,0-.48,1.56,4.66,4.66,0,0,0,.44,1.8,39.88,39.88,0,0,0,2.47,4.2q2.67,4.21,2.94,6.93A8.43,8.43,0,0,1,124.77,562.32Z" transform="translate(-1.7)" fill="#fff"/><path d="M139.7,580.07l-6.1-3,11.73-23.7-7.81-3.87,2.52-5.09,21.73,10.77-2.51,5.08-7.82-3.87Z" transform="translate(-1.7)" fill="#fff"/><path d="M189,582.29q-2.67,7.51-7.84,10.22t-12.12.24q-6.95-2.47-9.24-7.84t.4-12.92q2.69-7.56,7.84-10.21t12.14-.17c4.64,1.65,7.73,4.26,9.24,7.81S190.77,577.27,189,582.29Zm-22.09-7.86c-1.2,3.38-1.47,6.15-.79,8.32a7.15,7.15,0,0,0,4.84,4.62q7.68,2.73,11.31-7.48t-4-12.94a7.18,7.18,0,0,0-6.69.52C169.65,568.73,168.1,571.05,166.89,574.43Z" transform="translate(-1.7)" fill="#fff"/><path d="M222.45,606.33,214,604.56l-8.7-26.65-.19,0q-.92,6.39-1.47,9.08l-3.1,14.8-6-1.25,6.59-31.44,8.4,1.76,8.73,26.41.15,0q1-6.19,1.49-8.73L223,573.63l6,1.26Z" transform="translate(-1.7)" fill="#fff"/><path d="M349.06,598.93,345,592.07l-11.36,2.83-.41,8-7.12,1.78,3.2-34,8.08-2,18.84,28.55Zm-7.07-12q-5.64-9.3-6.37-10.53t-1.08-1.95q0,2.91-.67,14.5Z" transform="translate(-1.7)" fill="#fff"/><path d="M377.19,555l7.49,19.39a12,12,0,0,1,.76,6.4,10.38,10.38,0,0,1-2.82,5.49,16.4,16.4,0,0,1-6.12,3.89q-5.79,2.24-10.12.51a11.28,11.28,0,0,1-6.33-6.88L352.6,564.5l6.33-2.44L366,580.41c.89,2.3,2,3.82,3.36,4.54s3.09.67,5.23-.16,3.38-1.93,3.9-3.37.32-3.34-.58-5.66l-7.06-18.3Z" transform="translate(-1.7)" fill="#fff"/><path d="M412.4,563.06a8.31,8.31,0,0,1,.39,7.53c-1.08,2.44-3.27,4.53-6.57,6.24a20.44,20.44,0,0,1-9,2.5l-2.92-5.62a36,36,0,0,0,5.82-.73,15.84,15.84,0,0,0,3.93-1.38,5.83,5.83,0,0,0,2.65-2.35,3.15,3.15,0,0,0-1.36-4.06,6,6,0,0,0-2-.54,40.68,40.68,0,0,0-4.69,0,19.67,19.67,0,0,1-5.15-.32,10,10,0,0,1-3.46-1.54,8.37,8.37,0,0,1-2.6-3.1,8.28,8.28,0,0,1-.54-7.28q1.44-3.49,5.95-5.85a18.7,18.7,0,0,1,4.52-1.69,33.07,33.07,0,0,1,5-.72l.5,5.72a29.51,29.51,0,0,0-4.45.66,13.55,13.55,0,0,0-3.13,1.15,4.39,4.39,0,0,0-2.21,2.17,3.2,3.2,0,0,0,1.26,3.77,4.8,4.8,0,0,0,1.78.53,40.66,40.66,0,0,0,4.87,0c3.33-.11,5.82.21,7.47,1A8.38,8.38,0,0,1,412.4,563.06Z" transform="translate(-1.7)" fill="#fff"/><path d="M435.26,559.21l-5.71,3.73-14.46-22.16-7.3,4.77-3.1-4.75L425,527.54l3.1,4.75-7.3,4.77Z" transform="translate(-1.7)" fill="#fff"/><path d="M449.17,549.32l-19.65-25.41,5.39-4.17,19.65,25.41Z" transform="translate(-1.7)" fill="#fff"/><path d="M484.74,518.16l-6.29,6-26.85-8.05-.14.14q4.73,4.39,6.61,6.38l10.39,11L464,537.75,442,514.41l6.25-5.9,26.67,7.89.11-.11q-4.55-4.32-6.33-6.2l-10.45-11,4.46-4.21Z" transform="translate(-1.7)" fill="#fff"/><path d="M256.18,584.8h6.41c.4,0,.44,0,.44-.44v-6.13l.06-11.4c0-.8,0-1.61,0-2.42a.76.76,0,0,1,.83-.84c3.48,0,7,0,10.46,0a5.83,5.83,0,0,0,.71-.06c.65-.07,1,.31,1,1,0,2.47,0,4.93,0,7.39a1.57,1.57,0,0,0,.45,1.16,1,1,0,0,0,1.12.27c.73-.25,1.12.13,1.44.66a.76.76,0,0,0,.49.36c.18.05.36.13.54.17s.34,0,.51.06a2.93,2.93,0,0,1,.67.08,1.55,1.55,0,0,0,.74,0,10.28,10.28,0,0,1,1.11,0c.24,0,.34.19.44.38a1.82,1.82,0,0,0,.29.38c.2.22.41.2.67,0s.37,0,.56,0,.17.08.25.13a1.89,1.89,0,0,0,1.08.26,2.78,2.78,0,0,0,1.18-.25c.14,0,.36.09.55.15s.28.14.38.1a.89.89,0,0,1,1.08.39.65.65,0,0,0,.73.08,5.45,5.45,0,0,1,.55-.25,2.18,2.18,0,0,1,1-.18c.24,0,.5-.16.75-.19a2.35,2.35,0,0,1,.75,0,.74.74,0,0,0,.6,0,1.38,1.38,0,0,1,1.66.32,4,4,0,0,0,1.67.88h0c.45.39,1,.31,1.56.39a.83.83,0,0,1,.74.89c0,2.15,0,4.29,0,6.44a1,1,0,0,0,.33.76,1.94,1.94,0,0,1,.6,1.34.88.88,0,0,0,.15.53,4.58,4.58,0,0,1,.42,1c.06.15.08.34.19.43a1.28,1.28,0,0,1,.38,1.11,3.51,3.51,0,0,1-.4,1.74,3.47,3.47,0,0,0-.3,2.41,1.43,1.43,0,0,1-.36,1.1,2.89,2.89,0,0,1-.35.35.29.29,0,0,0,0,.42c.17.28.25.58,0,.82a.59.59,0,0,1-.41.18,3.2,3.2,0,0,0-1.82.6c-.21.11-.43.21-.64.33a3.14,3.14,0,0,0-.48.33c-.33.31-.62.64-1,.94s-.79.69-1.21,1-.95.73-1.45,1-1.21.67-1.81,1a13.71,13.71,0,0,0-1.14.79l-1.26.94a5,5,0,0,0-1.37,1.55c-.06.13-.16.23-.23.36-.28.55-.56,1.11-.81,1.68a2.19,2.19,0,0,0-.14.72,7,7,0,0,0,.11,1.94,23.6,23.6,0,0,1,.6,2.34,8.22,8.22,0,0,1,0,1.57c0,.23-.2.34-.38.45a5.29,5.29,0,0,0-.6.36.87.87,0,0,1-1.21-.12,1.81,1.81,0,0,0-1.79-.63,2,2,0,0,1-1.32-.35c-.38-.23-.78-.44-1.18-.65s-.88-.44-1.33-.66c-.07,0-.14-.06-.2-.1s-.41-.2-.5-.37a4.91,4.91,0,0,1-.5-1.21,3.84,3.84,0,0,0-.59-1.18,1.33,1.33,0,0,1-.37-1.07.55.55,0,0,0-.07-.38,1.31,1.31,0,0,1-.21-1.13.5.5,0,0,0-.28-.53,3.27,3.27,0,0,1-1.29-1.48,2.49,2.49,0,0,0-.88-1.16,2.16,2.16,0,0,1-.74-1c-.17-.48-.4-1-.62-1.42a9.29,9.29,0,0,1-.66-1.48,2.56,2.56,0,0,0-.8-1.33c-.43-.4-.92-.74-1.37-1.13a3.26,3.26,0,0,1-.58-.65.64.64,0,0,0-.53-.32c-.48,0-.95-.12-1.43-.16a5.19,5.19,0,0,0-.56,0c-.07,0-.17,0-.22,0-.28-.23-.53-.11-.81,0s-.48.14-.71.24a.6.6,0,0,0-.34.26,6.2,6.2,0,0,0-.55,1.82c0,.23-.34.45-.53.66s-.25.18-.34.3a1.07,1.07,0,0,1-1.5.4c-.29-.13-.55-.32-.83-.48a12.55,12.55,0,0,0-1.4-.75,3.89,3.89,0,0,1-1.49-.94c-.28-.31-.67-.52-1-.8a2.47,2.47,0,0,1-.45-.61c-.16-.28-.3-.57-.43-.86a1,1,0,0,1-.16-.51,2.52,2.52,0,0,0-.54-1.8,1,1,0,0,1-.16-.33,1.89,1.89,0,0,0-1.2-1.33,4.44,4.44,0,0,1-1.46-1.23c-.19-.22-.41-.41-.61-.61a7.33,7.33,0,0,0-.57-.55,8,8,0,0,0-.94-.71,2,2,0,0,1-.8-.84,1.7,1.7,0,0,0-.81-.84,1,1,0,0,1-.54-.9v-.34a.63.63,0,0,1,.7-.69h6.53Z" transform="translate(-1.7)" fill="#fff"/><path d="M96.21,47.4l11.58-6.6q7.9-4.52,12.77-4.3t7.66,5.13A10.37,10.37,0,0,1,129.78,48a7.17,7.17,0,0,1-2.7,4.94l.15.26a9.43,9.43,0,0,1,6.79,0,11.09,11.09,0,0,1,4.84,4.86,10.92,10.92,0,0,1,.85,10q-2.06,5-8.37,8.54l-13.92,7.94ZM112.5,57.64,117.08,55q3.21-1.83,4.08-3.64a4.28,4.28,0,0,0-.43-4.11,3.79,3.79,0,0,0-3.32-2.17A11.73,11.73,0,0,0,111.93,47l-4.15,2.37Zm3.57,6.26,5.53,9.7,5.14-2.93q3.26-1.86,4.1-4a5.31,5.31,0,0,0-.63-4.71q-2.64-4.62-9.25-.85Z" transform="translate(-1.7)" fill="#fff"/><path d="M171.41,26.89q2.44,6.46-.31,11.42t-10.21,7.76l-3.64,1.38,5.37,14.25-8.5,3.21L139,24.83,151.81,20q7.29-2.74,12.27-1T171.41,26.89ZM154.62,40.48l2.8-1q3.92-1.49,5.28-3.76a5.76,5.76,0,0,0,.24-5.24,5.93,5.93,0,0,0-3.29-3.8c-1.45-.54-3.33-.38-5.65.5l-3.87,1.46Z" transform="translate(-1.7)" fill="#fff"/><path d="M226,45.49,212.23,13.15l-.26,0q1.62,10.14,2,13.55L216,46.54l-8.07.85-4.48-42.6L215.78,3.5,229.29,35h.18l7.26-33.71L249,0l4.49,42.6-8.42.88L243,23.32c-.1-.95-.21-2.05-.31-3.29s-.32-4.57-.65-10l-.26,0-7.47,34.51Z" transform="translate(-1.7)" fill="#fff"/><path d="M291.58,33.4a11.06,11.06,0,0,1-4.82,8.81q-4.41,3-11.83,2.5A27.24,27.24,0,0,1,263,41.26l.61-8.41a50.19,50.19,0,0,0,7.12,3.24,21.82,21.82,0,0,0,5.42,1.19,7.88,7.88,0,0,0,4.66-.81,3.89,3.89,0,0,0,1.84-3.27,3.77,3.77,0,0,0-.54-2.29,7.72,7.72,0,0,0-1.93-2,53.22,53.22,0,0,0-5.33-3.3,25.78,25.78,0,0,1-5.61-4,13.29,13.29,0,0,1-2.85-4.17,11.32,11.32,0,0,1-.79-5.34,11.1,11.1,0,0,1,4.49-8.64Q274.19.52,281,1a24.8,24.8,0,0,1,6.3,1.25,43.68,43.68,0,0,1,6.16,2.67L290,11.75a44.56,44.56,0,0,0-5.51-2.36,17.93,17.93,0,0,0-4.36-.87,5.82,5.82,0,0,0-4,.91,4,4,0,0,0-1.6,3,3.82,3.82,0,0,0,.41,2.12,6,6,0,0,0,1.64,1.86,56.13,56.13,0,0,0,5.52,3.41c3.86,2.19,6.46,4.31,7.8,6.33A11.26,11.26,0,0,1,291.58,33.4Z" transform="translate(-1.7)" fill="#fff"/><path d="M336.1,55.54l-8.7-2.48,6.78-23.84,1.2-3.89,1.36-4.25c-1.86,1-3.13,1.7-3.82,2l-5.82,2.46-2.71-6.44,16.28-6.79,7.16,2Z" transform="translate(-1.7)" fill="#fff"/><path d="M374.21,40.92q5.67,2.51,7.63,7.19t-.5,10.22q-2.91,6.56-8.52,8.31t-13.14-1.59q-6.54-2.89-9.62-6.79l3.17-7.15a26.09,26.09,0,0,0,9.13,7.09q7.59,3.34,10.34-2.86,2.61-5.93-5.23-9.4a21.77,21.77,0,0,0-3.26-1.1,24.88,24.88,0,0,0-3-.63L358.64,41,369,21.67l21.24,9.41-3.1,7-14-6.18L369,39.27l1,.23A20.21,20.21,0,0,1,374.21,40.92Z" transform="translate(-1.7)" fill="#fff"/><path d="M418,72q-5.93,9.52-11.9,12.16t-12.46-1.4q-6.28-3.92-6.55-10.63t5.49-16q6-9.63,11.93-12.26t12.42,1.4q6.3,3.91,6.55,10.69T418,72ZM400.19,61q-4.15,6.69-4.81,10.31c-.43,2.41.27,4.19,2.09,5.32s3.7.94,5.71-.52,4.39-4.4,7.14-8.81,4.36-7.92,4.77-10.36-.27-4.23-2-5.33-3.71-1-5.7.5S403,56.51,400.19,61Z" transform="translate(-1.7)" fill="#fff"/></g><g id="c0804961-3585-4152-bfa4-a1f2799ebd90" data-name="Crank Split Text"><path d="M26.82,330.7H13.63V292.65H1.7V281.86h37v10.79H26.82Z" transform="translate(-1.7)" fill="#fff"/><path d="M74.68,330.7h-29V281.86h29v10.59H58.88v7.68H73.51v10.59H58.88v9.22h15.8Z" transform="translate(-1.7)" fill="#fff"/><path d="M113.19,330.7l-2.4-9.16H94.92l-2.47,9.16H78l15.93-49h17.6l16.13,49Zm-5.14-20-2.1-8c-.49-1.79-1.09-4.09-1.79-6.92s-1.16-4.85-1.39-6.08q-.3,1.71-1.18,5.61t-3.93,15.4Z" transform="translate(-1.7)" fill="#fff"/><path d="M154.18,330.7l-10-35.18h-.3q.71,9,.7,14V330.7H132.9V281.86h17.57l10.19,34.67h.26l10-34.67h17.6V330.7H176.39V309.29c0-1.12,0-2.35.05-3.71s.18-4.69.45-10h-.3l-9.86,35.11Z" transform="translate(-1.7)" fill="#fff"/><path d="M258.25,305.24q0,12.22-6.73,18.84T232.6,330.7H216.8V281.86h16.9q11.76,0,18.16,6T258.25,305.24Zm-13.69.47q0-6.7-2.66-9.95t-8.06-3.24H230v27.35h2.93q6,0,8.82-3.49T244.56,305.71Z" transform="translate(-1.7)" fill="#fff"/><path d="M296,330.7H267V281.86h29v10.59H280.2v7.68h14.63v10.59H280.2v9.22H296Z" transform="translate(-1.7)" fill="#fff"/><path d="M304.54,330.7V281.86h13.2V320h18.8V330.7Z" transform="translate(-1.7)" fill="#fff"/><path d="M390.05,306.21q0,12.33-6.05,18.74t-17.7,6.41q-11.49,0-17.62-6.44t-6.13-18.77q0-12.19,6.1-18.62t17.72-6.43q11.65,0,17.67,6.38T390.05,306.21Zm-33.6,0q0,14.16,9.85,14.17,5,0,7.43-3.45t2.42-10.72q0-7.31-2.45-10.8a8.37,8.37,0,0,0-7.33-3.49Q356.44,291.92,356.45,306.21Z" transform="translate(-1.7)" fill="#fff"/><path d="M398.87,330.7V281.86h13.26V330.7Z" transform="translate(-1.7)" fill="#fff"/><path d="M444.22,330.7H431V292.65H419.11V281.86h37v10.79h-11.9Z" transform="translate(-1.7)" fill="#fff"/><path d="M484.64,330.7H471.45V292.65H459.52V281.86h37v10.79H484.64Z" transform="translate(-1.7)" fill="#fff"/><path d="M532.5,330.7h-29V281.86h29v10.59H516.7v7.68h14.63v10.59H516.7v9.22h15.8Z" transform="translate(-1.7)" fill="#fff"/></g><g id="ca38b5d3-6434-4de8-bb91-9649460ecd3b" data-name="Crank Split"><path d="M110.55,253.79h46.88c-8.86-7-11-19-4.28-30,0,0,9.67-15.79,30.24-30.86S222,173.43,222,173.43c15.91-3.93,29,6.26,29,22.64l.12,57.72h34.17l-.29-57.87c-.08-16.38,12.88-26.66,28.81-22.84,0,0,18,4.31,38.7,19.22S382.91,223,382.91,223c7.08,11.4,4.56,23.89-5.14,30.84h47.68a10.63,10.63,0,0,1,7-9.89c-.8-2-1.65-4-2.53-6A10.6,10.6,0,0,1,420.26,219c-1.11-1.88-2.24-3.74-3.42-5.57a10.61,10.61,0,0,1-12.53-17.11q-2.08-2.51-4.28-5A10.6,10.6,0,0,1,385,176.46q-2.45-2.15-5-4.22a10.6,10.6,0,0,1-17.19-12.4q-2.78-1.76-5.59-3.41a10.6,10.6,0,0,1-18.91-9.57c-2-.87-4-1.71-6-2.5a10.61,10.61,0,0,1-20.19-6.48c-2.12-.54-4.24-1-6.37-1.49a10.61,10.61,0,0,1-21-3.23q-3.25-.3-6.52-.5a10.6,10.6,0,0,1-21.2.1c-2.17.14-4.35.33-6.51.55a10.61,10.61,0,0,1-20.93,3.39q-3.18.7-6.35,1.53a10.61,10.61,0,0,1-20.15,6.61c-2,.8-4,1.65-6,2.53A10.6,10.6,0,0,1,178.18,157c-1.88,1.12-3.74,2.25-5.57,3.43A10.61,10.61,0,0,1,155.5,173c-1.67,1.39-3.32,2.82-4.95,4.27a10.61,10.61,0,0,1-14.92,15.07q-2.15,2.44-4.22,5A10.6,10.6,0,0,1,119,214.52q-1.76,2.78-3.41,5.58A10.61,10.61,0,0,1,106,239c-.87,2-1.71,4-2.5,6A10.61,10.61,0,0,1,110.55,253.79Z" transform="translate(-1.7)" fill="#86bc25"/><path d="M426.34,359.82a10.74,10.74,0,0,1,.79-1.83H403.56c-7.72,21.2-18,33.43-18,33.43-10.56,12.52-27.09,11.94-36.75-1.29L325.34,358H282.42a27.45,27.45,0,0,1,3.68,4.13l35.27,48c9.7,13.21,5.25,29.15-9.88,35.42,0,0-17.11,7.1-42.61,7.19s-42.66-6.88-42.66-6.88c-15.18-6.17-19.74-22.08-10.13-35.35L251,362.24a27.37,27.37,0,0,1,3.75-4.25H212l-23.54,32.74c-9.56,13.3-26.09,14-36.74,1.54,0,0-10.71-12.53-18.61-34.28H109a10.6,10.6,0,0,1-5,16.25c.8,2,1.65,4,2.53,6a10.61,10.61,0,0,1,9.68,18.87c1.11,1.87,2.24,3.73,3.42,5.57a10.61,10.61,0,0,1,12.53,17.11q2.09,2.51,4.28,4.94a10.61,10.61,0,0,1,15.06,14.93q2.44,2.15,5,4.22a10.6,10.6,0,0,1,17.19,12.4c1.85,1.17,3.71,2.31,5.59,3.4a10.6,10.6,0,0,1,18.91,9.58c2,.87,4,1.71,6,2.49a10.61,10.61,0,0,1,20.19,6.49c2.12.54,4.24,1,6.37,1.49a10.6,10.6,0,0,1,21,3.23c2.18.2,4.35.37,6.53.49a10.6,10.6,0,0,1,21.2-.09c2.17-.14,4.34-.33,6.51-.55a10.61,10.61,0,0,1,20.93-3.39c2.12-.48,4.24-1,6.35-1.54a10.61,10.61,0,0,1,20.15-6.6c2-.8,4-1.65,6-2.53a10.6,10.6,0,0,1,18.86-9.68c1.87-1.11,3.73-2.24,5.57-3.42A10.61,10.61,0,0,1,381,445.14q2.5-2.08,4.95-4.28a10.6,10.6,0,0,1,14.92-15.06q2.14-2.44,4.22-5a10.61,10.61,0,0,1,12.4-17.2c1.17-1.84,2.31-3.7,3.4-5.58a10.6,10.6,0,0,1,9.58-18.91c.87-2,1.71-4,2.5-6.05A10.61,10.61,0,0,1,426.34,359.82Z" transform="translate(-1.7)" fill="#86bc25"/><path d="M52.51,251a10.85,10.85,0,0,1-1.17,2.72H173.23L127.13,239c-21.53-6.88-29.5-28.27-17.7-47.55,0,0,13.35-21.8,41.74-42.58s53.2-26.92,53.2-26.92c21.95-5.42,39.94,8.64,40,31.24l.17,82.23a33.64,33.64,0,0,1-4.89,18.3h57.23a33.52,33.52,0,0,1-5.18-18.51L291.27,153c-.12-22.6,17.77-36.79,39.75-31.53,0,0,24.86,6,53.4,26.54s42,42.29,42,42.29c11.93,19.19,4.12,40.65-17.36,47.67l-48.18,15.76H487a10.58,10.58,0,0,1,7.13-6q-.93-3.41-1.95-6.78a10.6,10.6,0,0,1-7.07-20q-1.32-3.27-2.75-6.5a10.61,10.61,0,0,1-9.43-19q-1.71-3.08-3.51-6.11a10.61,10.61,0,0,1-11.66-17.72q-2.07-2.85-4.23-5.64a10.61,10.61,0,0,1-13.72-16.18c-1.6-1.71-3.23-3.41-4.89-5.08A10.61,10.61,0,0,1,419.3,130.3c-1.87-1.57-3.79-3.12-5.72-4.65a10.6,10.6,0,0,1-17.2-12.4c-2-1.3-3.95-2.57-5.95-3.79a10.6,10.6,0,0,1-18.56-10.25q-3.18-1.58-6.37-3a10.61,10.61,0,0,1-19.67-7.94c-2.22-.79-4.45-1.53-6.68-2.24a10.61,10.61,0,0,1-20.49-5.5q-3.45-.76-6.91-1.41a10.61,10.61,0,0,1-21-3c-2.34-.23-4.68-.41-7-.57a10.6,10.6,0,0,1-21.2-.42q-3.52.09-7,.28a10.6,10.6,0,0,1-21.09,2.12q-3.49.51-7,1.13a10.6,10.6,0,0,1-20.69,4.63q-3.41.93-6.78,2a10.61,10.61,0,0,1-20,7.09c-2.17.88-4.34,1.8-6.49,2.75a10.61,10.61,0,0,1-19,9.44q-3.08,1.71-6.12,3.52a10.6,10.6,0,0,1-17.7,11.67q-2.85,2.09-5.64,4.24a10.61,10.61,0,0,1-16.17,13.73q-2.57,2.4-5.08,4.89a10.61,10.61,0,0,1-14.39,15.58c-1.51,1.79-3,3.62-4.45,5.47A10.61,10.61,0,0,1,72.5,180.79c-1.29,2-2.56,4-3.79,6A10.61,10.61,0,0,1,58.45,205.3q-1.58,3.16-3,6.36a10.61,10.61,0,0,1-8,19.66q-1.17,3.33-2.24,6.69A10.61,10.61,0,0,1,52.51,251Z" transform="translate(-1.7)" fill="#fff"/><path d="M460.68,357.89c-.95,3.78-2.06,7.71-3.36,11.76-10.76,33.5-27.23,53-27.23,53-14.56,17.29-37.38,16.49-50.7-1.77l-46-63H204l-45.89,63.85c-13.2,18.35-36,19.31-50.7,2.13,0,0-16.61-19.42-27.6-52.85-1.49-4.54-2.74-8.93-3.8-13.13H50.22a10.61,10.61,0,0,1-7.82,12.54c.62,2.27,1.26,4.53,2,6.78a10.6,10.6,0,0,1,7.07,20c.88,2.18,1.8,4.34,2.74,6.5a10.6,10.6,0,0,1,9.43,19c1.14,2.06,2.32,4.1,3.52,6.12a10.61,10.61,0,0,1,11.66,17.72q2.07,2.85,4.23,5.64a10.61,10.61,0,0,1,13.72,16.17c1.6,1.72,3.23,3.41,4.89,5.09a10.6,10.6,0,0,1,15.56,14.4q2.82,2.37,5.73,4.66a10.6,10.6,0,0,1,17.2,12.4c2,1.29,4,2.56,6,3.79a10.6,10.6,0,0,1,18.56,10.25q3.16,1.58,6.37,3a10.6,10.6,0,0,1,19.66,7.94q3.33,1.17,6.69,2.24a10.61,10.61,0,0,1,20.49,5.5q3.45.76,6.91,1.41a10.61,10.61,0,0,1,21,3c2.34.23,4.68.41,7,.57A10.6,10.6,0,0,1,274,543q3.53-.09,7-.28a10.61,10.61,0,0,1,21.1-2.13q3.5-.51,7-1.12a10.61,10.61,0,0,1,20.7-4.63q3.39-.93,6.77-2a10.61,10.61,0,0,1,20-7.08c2.18-.89,4.34-1.8,6.5-2.75a10.61,10.61,0,0,1,19-9.45c2.05-1.13,4.09-2.31,6.11-3.51a10.61,10.61,0,0,1,17.71-11.67q2.85-2.08,5.64-4.24a10.61,10.61,0,0,1,16.17-13.73c1.71-1.61,3.4-3.23,5.08-4.89A10.61,10.61,0,0,1,447.11,460c1.51-1.79,3-3.62,4.45-5.47A10.61,10.61,0,0,1,464,437.35q1.93-3,3.78-6A10.61,10.61,0,0,1,478,412.84q1.58-3.16,3-6.36a10.61,10.61,0,0,1,8-19.66q1.17-3.33,2.24-6.69a10.61,10.61,0,0,1,5.52-20.48c.13-.59.25-1.18.37-1.76ZM327.92,497.41s-23.61,9.79-58.79,9.92-58.87-9.51-58.87-9.51c-20.94-8.51-27.23-30.46-14-48.77l48.2-66.62c13.24-18.31,35-18.39,48.41-.17l48.66,66.28C354.93,466.76,348.8,488.74,327.92,497.41Z" transform="translate(-1.7)" fill="#fff"/><line x1="49.75" y1="253.68" x2="485.25" y2="253.68" fill="none" stroke="#fff" stroke-miterlimit="10" stroke-width="5"/><path d="M497,355.68" transform="translate(-1.7)" fill="none" stroke="#000" stroke-miterlimit="10" stroke-width="5"/><path d="M50.34,360.68" transform="translate(-1.7)" fill="none" stroke="#000" stroke-miterlimit="10" stroke-width="5"/><line x1="48.64" y1="356.78" x2="495.46" y2="356.78" fill="none" stroke="#fff" stroke-miterlimit="10" stroke-width="5"/></g></svg>